<svg width="25" height="15" viewBox="0 0 25 15" fill="none" xmlns="http://www.w3.org/2000/svg">
<path d="M7.06904 5.43506C7.06904 5.74261 7.10225 5.99193 7.16016 6.17477C7.23368 6.38047 7.3222 6.58046 7.425 6.7731C7.46641 6.83957 7.48291 6.90604 7.48291 6.96428C7.48291 7.04732 7.4333 7.13046 7.32568 7.21359L6.8042 7.56261C6.72969 7.61251 6.65518 7.63742 6.58887 7.63742C6.50615 7.63742 6.42334 7.59585 6.34053 7.52104C6.229 7.40071 6.12923 7.26991 6.04258 7.13046C5.95977 6.98928 5.87695 6.83124 5.78594 6.64016C5.14023 7.40467 4.32891 7.78702 3.35215 7.78702C2.65684 7.78702 2.10215 7.58751 1.69648 7.18869C1.29092 6.78967 1.08398 6.25781 1.08398 5.593C1.08398 4.88663 1.33232 4.3132 1.8373 3.88104C2.34219 3.44889 3.01279 3.23281 3.86543 3.23281C4.14687 3.23281 4.43662 3.25771 4.74287 3.29928C5.04922 3.34085 5.36377 3.40732 5.69492 3.48212V2.87546C5.69492 2.24379 5.5624 1.8034 5.30576 1.54575C5.04092 1.2881 4.59385 1.1634 3.95645 1.1634C3.6667 1.1634 3.36875 1.19673 3.0624 1.27154C2.75615 1.34624 2.45811 1.43771 2.16836 1.55408C2.03594 1.61222 1.93662 1.64546 1.87861 1.66212C1.8207 1.67879 1.7793 1.68703 1.74619 1.68703C1.63027 1.68703 1.57236 1.60389 1.57236 1.42938V1.02212C1.57236 0.889183 1.58896 0.789477 1.63027 0.73134C1.67168 0.673104 1.74619 0.614967 1.86211 0.55683C2.15186 0.407222 2.49951 0.282516 2.90508 0.182811C3.31084 0.0747713 3.74131 0.0249674 4.19658 0.0249674C5.18174 0.0249674 5.90195 0.249281 6.36553 0.698104C6.8208 1.14683 7.05264 1.8283 7.05264 2.74252V5.43506H7.06924H7.06904ZM3.70811 6.6983C3.98135 6.6983 4.26279 6.64849 4.56074 6.54869C4.85879 6.44898 5.12373 6.26614 5.34717 6.01683C5.47969 5.85898 5.579 5.68447 5.62861 5.48496C5.67832 5.28555 5.71143 5.04448 5.71143 4.76193V4.41291C5.46038 4.35156 5.20611 4.3044 4.9498 4.27163C4.69172 4.23872 4.43184 4.22206 4.17168 4.22173C3.61699 4.22173 3.21143 4.32977 2.93828 4.55418C2.66504 4.77859 2.53262 5.09438 2.53262 5.50987C2.53262 5.90045 2.63193 6.19134 2.83887 6.39085C3.0376 6.59859 3.32734 6.6983 3.70811 6.6983ZM10.3555 7.59585C10.2064 7.59585 10.1071 7.57094 10.0409 7.51271C9.97471 7.4629 9.9167 7.34653 9.86709 7.18869L7.92178 0.764575C7.87197 0.598301 7.84717 0.490261 7.84717 0.432124C7.84717 0.299183 7.91338 0.224281 8.0459 0.224281H8.85713C9.01435 0.224281 9.12207 0.249281 9.17998 0.307418C9.24619 0.35732 9.2959 0.473693 9.34551 0.631536L10.7362 6.1332L12.0276 0.631536C12.069 0.465359 12.1187 0.35732 12.1849 0.307418C12.2512 0.257614 12.3671 0.224379 12.5161 0.224379H13.1783C13.3355 0.224379 13.4433 0.249281 13.5094 0.307418C13.5757 0.35732 13.6336 0.473693 13.6667 0.631536L14.9747 6.19967L16.4067 0.631536C16.4563 0.465359 16.5144 0.35732 16.5723 0.307418C16.6385 0.257614 16.7461 0.224379 16.8951 0.224379H17.6649C17.7975 0.224379 17.872 0.29085 17.872 0.432124C17.872 0.473693 17.8637 0.515261 17.8554 0.565065C17.8471 0.614967 17.8306 0.681438 17.7975 0.772908L15.8023 7.19692C15.7527 7.3632 15.6948 7.47124 15.6285 7.52104C15.5623 7.57094 15.4547 7.60418 15.3141 7.60418H14.6021C14.4448 7.60418 14.3372 7.57928 14.2709 7.52104C14.2047 7.4629 14.1468 7.35487 14.1137 7.18869L12.8305 1.8283L11.5557 7.18026C11.5144 7.34653 11.4646 7.45457 11.3984 7.51271C11.3322 7.57094 11.2163 7.59585 11.0674 7.59585H10.3554H10.3555ZM20.9929 7.82026C20.5624 7.82026 20.1319 7.77036 19.7181 7.67065C19.3041 7.57094 18.9813 7.46281 18.7661 7.3383C18.6336 7.2634 18.5425 7.18036 18.5095 7.10555C18.4772 7.0322 18.4603 6.95298 18.4598 6.87281V6.44898C18.4598 6.27447 18.526 6.19134 18.6502 6.19134C18.7009 6.19153 18.7512 6.19997 18.7992 6.21634C18.8488 6.233 18.9233 6.26614 19.0062 6.29938C19.2985 6.42849 19.6038 6.526 19.9167 6.59026C20.241 6.65632 20.571 6.68972 20.9019 6.68996C21.4233 6.68996 21.829 6.59859 22.1104 6.41575C22.3919 6.23291 22.5409 5.96702 22.5409 5.62624C22.5409 5.39359 22.4664 5.20242 22.3174 5.04448C22.1684 4.88663 21.8869 4.74536 21.4813 4.61232L20.281 4.2384C19.6767 4.04722 19.2297 3.76467 18.9564 3.39065C18.6833 3.02497 18.5426 2.61781 18.5426 2.18565C18.5426 1.83663 18.6171 1.52908 18.7661 1.2631C18.915 0.997222 19.1138 0.764575 19.3621 0.581732C19.6104 0.390556 19.8919 0.249281 20.223 0.149575C20.5541 0.0498694 20.9018 0.00830078 21.266 0.00830078C21.4481 0.00830078 21.6386 0.0166341 21.8207 0.0415361C22.0111 0.066438 22.185 0.0996733 22.3588 0.132909C22.5243 0.174477 22.6816 0.216046 22.8307 0.265948C22.9797 0.315752 23.0955 0.365654 23.1783 0.415457C23.2942 0.482026 23.377 0.548497 23.4267 0.6233C23.4764 0.689771 23.5012 0.781144 23.5012 0.897516V1.2881C23.5012 1.46261 23.435 1.55408 23.3107 1.55408C23.2445 1.55408 23.1369 1.52075 22.9963 1.45428C22.5243 1.2382 21.9945 1.13016 21.4068 1.13016C20.935 1.13016 20.5624 1.20497 20.3058 1.36291C20.0492 1.52075 19.9167 1.76183 19.9167 2.10252C19.9167 2.33526 19.9995 2.53467 20.165 2.69261C20.3307 2.85046 20.6369 3.0084 21.0757 3.14967L22.2512 3.52369C22.8472 3.71487 23.2776 3.98075 23.5343 4.32144C23.7909 4.66222 23.9151 5.05281 23.9151 5.48496C23.9151 5.84232 23.8405 6.16644 23.6998 6.44898C23.5509 6.73153 23.3521 6.98085 23.0955 7.18036C22.8389 7.3881 22.5326 7.53771 22.1767 7.64575C21.8041 7.76212 21.415 7.82026 20.9929 7.82026Z" fill="#252F3E"/>
<path d="M22.5582 11.8593C19.8348 13.8788 15.8778 14.9509 12.4755 14.9509C7.70726 14.9509 3.41097 13.1807 0.165954 10.2387C-0.0906864 10.0061 0.141052 9.69032 0.447302 9.87306C3.95726 11.9176 8.28675 13.1558 12.7653 13.1558C15.7868 13.1558 19.1063 12.5242 22.161 11.2278C22.6162 11.0199 23.0053 11.527 22.5582 11.8593ZM23.6924 10.5629C23.3448 10.1141 21.3911 10.3468 20.5053 10.4548C20.2404 10.4882 20.199 10.2554 20.4391 10.0809C21.9953 8.98385 24.5534 9.29973 24.8513 9.66532C25.1494 10.0393 24.7685 12.6073 23.3116 13.8373C23.0881 14.0285 22.8729 13.9288 22.9722 13.6794C23.3033 12.8566 24.0401 11.0034 23.6924 10.5629Z" fill="#FF9900"/>
</svg>
