<svg width="29" height="29" viewBox="0 0 29 29" fill="none" xmlns="http://www.w3.org/2000/svg">
<path d="M22.5945 13.2418C21.6889 12.3457 21.4411 9.67683 22.5945 8.49491L22.9376 8.09452L23.2808 8.43771C24.3865 9.31462 25.0156 10.3059 25.1681 11.4117C26.7062 10.944 27.836 11.25 28.9999 11.9836C28.2453 13.5603 27.0824 14.5491 24.4818 14.4428C22.1272 20.3077 17.0659 23.8223 9.55476 23.8794C5.58952 23.8794 2.749 22.4496 1.03318 19.4757C0.0798074 17.7237 -0.122003 16.4615 0.0610593 14.0425H2.57749V11.0113H5.55129V8.03731H11.4992V5.12061H15.0451V11.0113H18.0191V14.0425C20.0576 14.1016 21.3239 13.9756 22.5944 13.2418H22.5945ZM5.26543 11.6976H5.43699V13.8709H5.26537V11.6976H5.26543ZM4.86509 11.6976H5.09386V13.8709H4.86503V11.6976H4.86509ZM4.46476 11.6976H4.69353V13.8709H4.4647V11.6976H4.46476ZM4.06442 11.6976H4.29313V13.8709H4.06448V11.6976H4.06442ZM3.72123 11.6976H3.89285V13.8709H3.72123V11.6976ZM3.3209 11.6976H3.49252V13.8709H3.3209V11.6976ZM3.09213 11.526V14.0997H5.66576V11.526H3.09213ZM8.2394 8.78084H8.41096V10.8969H8.23934V8.78084H8.2394ZM7.83906 8.78084H8.01063V10.8969H7.83901V8.78084H7.83906ZM7.43867 8.78084H7.6675V10.8969H7.43867V8.78084ZM7.03833 8.78084H7.26716V10.8969H7.03833V8.78084ZM6.638 8.78084H6.86683V10.8969H6.638V8.78084ZM6.29487 8.78084H6.46649V10.8969H6.29487V8.78084ZM6.0661 8.55206V11.1257H8.63974V8.55206H6.0661ZM8.2394 11.6976H8.41096V13.8709H8.23934V11.6976H8.2394ZM7.83906 11.6976H8.01063V13.8709H7.83901V11.6976H7.83906ZM7.43867 11.6976H7.6675V13.8709H7.43867V11.6976ZM7.03833 11.6976H7.26716V13.8709H7.03833V11.6976ZM6.638 11.6976H6.86683V13.8709H6.638V11.6976ZM6.29487 11.6976H6.46649V13.8709H6.29487V11.6976ZM6.0661 11.526V14.0997H8.63974V11.526H6.0661ZM11.1562 11.6977H11.3849V13.8709H11.1561V11.6976L11.1562 11.6977ZM10.813 11.6977H10.9846V13.8709H10.813V11.6976V11.6977ZM10.4126 11.6977H10.5843V13.8709H10.4126V11.6976V11.6977ZM10.0123 11.6977H10.2411V13.8709H10.0123V11.6976V11.6977ZM9.61197 11.6977H9.8408V13.8709H9.61197V11.6976V11.6977ZM9.21164 11.6977H9.44041V13.8709H9.21164V11.6976V11.6977ZM9.04001 11.526V14.0997H11.6137V11.526H9.04007H9.04001ZM11.1561 8.78084H11.3849V10.8969H11.1561V8.78084ZM10.813 8.78084H10.9846V10.8969H10.813V8.78084ZM10.4126 8.78084H10.5843V10.8969H10.4126V8.78084ZM10.0123 8.78084H10.2411V10.8969H10.0123V8.78084ZM9.61197 8.78084H9.8408V10.8969H9.61197V8.78084ZM9.21164 8.78084H9.44041V10.8969H9.21164V8.78084ZM9.04001 8.55206V11.1257H11.6137V8.55206H9.04007H9.04001ZM14.1301 11.6976H14.3589V13.8709H14.1301V11.6976H14.1301ZM13.7298 11.6976H13.9585V13.8709H13.7298V11.6976ZM13.3866 11.6976H13.5582V13.8709H13.3866V11.6976ZM12.9863 11.6976H13.1579V13.8709H12.9863V11.6976ZM12.5859 11.6976H12.8147V13.8709H12.5859V11.6976ZM12.1856 11.6976H12.4144V13.8709H12.1856V11.6976H12.1856ZM12.014 11.526V14.0997H14.5305V11.526H12.014ZM14.1301 8.78084H14.3589V10.8969H14.1301V8.78084ZM13.7298 8.78084H13.9585V10.8969H13.7298V8.78084ZM13.3866 8.78084H13.5582V10.8969H13.3866V8.78084ZM12.9863 8.78084H13.1579V10.8969H12.9863V8.78084ZM12.5859 8.78084H12.8147V10.8969H12.5859V8.78084ZM12.1856 8.78084H12.4144V10.8969H12.1856V8.78084H12.1856ZM12.014 8.55206V11.1257H14.5305V8.55206H12.014ZM14.1301 5.80686H14.3589V7.92296H14.1301V5.80686ZM13.7298 5.80686H13.9585V7.92296H13.7298V5.80686ZM13.3866 5.80686H13.5582V7.92296H13.3866V5.80686ZM12.9863 5.80686H13.1579V7.92296H12.9863V5.80686ZM12.5859 5.80686H12.8147V7.92296H12.5859V5.80686ZM12.1856 5.80686H12.4144V7.92296H12.1856V5.80686H12.1856ZM12.014 5.57809V8.15173H14.5305V5.57809H12.014ZM17.1041 11.6976H17.2757V13.8709H17.1041V11.6976H17.1041ZM16.7037 11.6976H16.9325V13.8709H16.7037V11.6976ZM16.3034 11.6976H16.5322V13.8709H16.3034V11.6976ZM15.9603 11.6976H16.1319V13.8709H15.9603V11.6976ZM15.5599 11.6976H15.7315V13.8709H15.5599V11.6976ZM15.1596 11.6976H15.3884V13.8709H15.1595V11.6976H15.1596ZM14.9308 11.526V14.0997H17.5044V11.526H14.9308H14.9308ZM8.46823 18.2174C8.27757 18.2174 8.11553 18.2937 7.98208 18.4463C7.84863 18.5988 7.78191 18.7703 7.78191 18.961C7.78191 19.1516 7.84863 19.3136 7.98208 19.4471C8.11553 19.5806 8.27757 19.6473 8.46823 19.6473C8.65888 19.6473 8.82087 19.5806 8.95432 19.4471C9.08776 19.3136 9.15448 19.1516 9.15448 18.961C9.15448 18.8084 9.12588 18.6846 9.06873 18.5892C9.01152 18.4939 8.92571 18.4081 8.81136 18.3319C8.697 18.2556 8.58258 18.2174 8.46823 18.2174ZM8.46823 18.4463C8.54447 18.4463 8.60167 18.4653 8.63979 18.5034C8.5635 18.5415 8.52538 18.5988 8.52538 18.675C8.52538 18.7894 8.60167 18.8466 8.75421 18.8466C8.83044 18.8466 8.88759 18.8084 8.92571 18.7321C8.96389 18.8084 8.98292 18.8847 8.98292 18.961C8.98292 19.3041 8.8113 19.4757 8.46823 19.4757C8.12515 19.4757 7.95348 19.3041 7.95348 18.961C7.95348 18.6178 8.1251 18.4462 8.46823 18.4462V18.4463ZM10.3555 23.3647C8.79227 22.6022 7.70567 21.5346 7.0956 20.162C6.44746 20.3526 5.66582 20.467 4.75073 20.5051H2.29145C4.19786 22.3734 6.61897 23.3266 9.55476 23.3647H10.3555Z" fill="#2396ED"/>
</svg>
