<svg width="26" height="21" viewBox="0 0 26 21" fill="none" xmlns="http://www.w3.org/2000/svg">
<g clip-path="url(#clip0)">
<path d="M17.2916 5.79218L19.5517 3.52367L19.7023 2.56848C15.5839 -1.19042 9.03705 -0.764203 5.32433 3.45782C4.29316 4.63045 3.52809 6.0924 3.12012 7.60206L3.92957 7.48758L8.44961 6.73932L8.79858 6.3812C10.8092 4.16478 14.2088 3.8666 16.5303 5.75242L17.2916 5.79218Z" fill="#EA4335"/>
<path d="M22.771 7.53541C22.2516 5.61524 21.185 3.88904 19.7021 2.5686L16.5301 5.75245C17.1912 6.29463 17.721 6.9804 18.0795 7.75806C18.438 8.53571 18.616 9.38493 18.5999 10.2417V10.8068C20.1588 10.8068 21.423 12.0755 21.423 13.6404C21.423 15.2054 20.1589 16.4423 18.5999 16.4423H12.9458L12.3906 17.0472V20.4459L12.9458 20.9792H18.5998C22.6551 21.0109 25.9684 17.7686 26 13.6981C26.0094 12.4833 25.7196 11.2851 25.1562 10.2099C24.5929 9.13474 23.7735 8.216 22.771 7.53541Z" fill="#4285F4"/>
<path d="M7.29911 20.9792H12.9453V16.4421H7.29911C6.89942 16.4421 6.50448 16.3552 6.1414 16.1875L5.34037 16.4342L3.06446 18.7027L2.86621 19.4748C4.14255 20.4421 5.69981 20.9861 7.29911 20.9792Z" fill="#34A853"/>
<path d="M7.29933 6.26177C3.24394 6.28613 -0.0240386 9.60576 0.000133232 13.6764C0.0068005 14.7981 0.268461 15.9035 0.765178 16.9083C1.2619 17.9132 1.98056 18.791 2.86643 19.4748L6.14162 16.1876C4.72076 15.5432 4.08924 13.8648 4.73122 12.4386C5.37309 11.0125 7.04542 10.3786 8.46618 11.0229C9.09229 11.3068 9.59375 11.8102 9.87658 12.4386L13.1518 9.1512C12.4644 8.24915 11.5784 7.51895 10.5631 7.01769C9.54781 6.51643 8.43077 6.25771 7.29933 6.26177Z" fill="#FBBC05"/>
</g>
<defs>
<clipPath id="clip0">
<rect width="26" height="21" fill="white"/>
</clipPath>
</defs>
</svg>
