<svg width="16" height="16" viewBox="0 0 16 16" fill="none" xmlns="http://www.w3.org/2000/svg">
<path d="M10.0142 11.1574H11.7411L8.98438 4.00306H7.07506L4.31838 11.1574H6.04537L6.49587 9.94556H9.10056L8.62906 8.60456H6.91406L8.02969 5.52619L10.0142 11.1574ZM15.7087 5.8605C15.6941 5.80789 15.6694 5.75866 15.6358 5.71564C15.6022 5.67262 15.5604 5.63665 15.5129 5.60979C15.4654 5.58293 15.413 5.5657 15.3588 5.5591C15.3047 5.5525 15.2497 5.55665 15.1971 5.57131C15.091 5.60078 15.0008 5.67122 14.9466 5.76713C14.8923 5.86304 14.8784 5.97657 14.9079 6.08275C15.0812 6.70709 15.169 7.35205 15.169 8C15.169 11.953 11.953 15.1689 8 15.1689C4.047 15.1689 0.831062 11.953 0.831062 8C0.831062 4.04694 4.047 0.831 8 0.831C9.67456 0.831 11.2949 1.42587 12.5737 2.4845C12.5225 2.60668 12.4962 2.73784 12.4963 2.87031C12.4963 3.4225 12.9439 3.87013 13.4961 3.87013C14.0483 3.87013 14.4959 3.4225 14.4959 2.87031C14.4959 2.31813 14.0483 1.8705 13.4961 1.8705C13.3898 1.8705 13.2875 1.88744 13.1914 1.91819C11.7514 0.691 9.90706 0 8 0C3.58881 0 0 3.58875 0 8C0 12.4112 3.58881 15.9999 8 15.9999C12.4112 15.9999 16 12.4112 16 8C16.0001 7.27694 15.9021 6.55722 15.7087 5.8605Z" fill="#112B49"/>
</svg>
