<svg width="256" height="256" viewBox="0 0 256 256" fill="none" xmlns="http://www.w3.org/2000/svg">
<g clip-path="url(#clip0_395:27)">
<path d="M100.43 139.195C101.361 122.589 109.492 107.96 121.76 97.5888C133.79 87.4028 149.982 81.1768 167.65 81.1768C185.3 81.1768 201.493 87.4028 213.532 97.5888C225.79 107.959 233.922 122.589 234.862 139.177C235.792 156.239 228.934 172.089 216.904 183.838C204.637 195.789 187.188 203.288 167.65 203.288C148.112 203.288 130.629 195.789 118.37 183.838C106.331 172.088 99.4905 156.238 100.43 139.195V139.195Z" fill="white"/>
<path d="M133.168 140.676C133.645 132.156 137.818 124.649 144.112 119.328C150.285 114.102 158.593 110.907 167.659 110.907C176.715 110.907 185.024 114.102 191.201 119.328C197.491 124.649 201.663 132.156 202.145 140.668C202.623 149.422 199.105 157.555 192.931 163.583C186.637 169.715 177.684 173.563 167.659 173.563C157.634 173.563 148.663 169.715 142.373 163.583C136.196 157.555 132.686 149.422 133.168 140.676V140.676Z" fill="#265787"/>
<path d="M78.4099 158.18C78.4699 161.52 79.5349 168.014 81.1339 173.084C84.4929 183.817 90.1909 193.747 98.1199 202.497C106.257 211.492 116.276 218.717 127.85 223.846C140.014 229.233 153.194 231.978 166.884 231.956C180.552 231.937 193.733 229.138 205.897 223.71C217.47 218.531 227.48 211.275 235.604 202.276C243.528 193.489 249.217 183.542 252.586 172.809C254.279 167.386 255.349 161.882 255.778 156.359C256.198 150.911 256.021 145.433 255.25 140.023C253.742 129.412 250.07 119.456 244.417 110.38C239.247 102.04 232.583 94.739 224.658 88.593L224.676 88.58L144.706 27.175C144.633 27.121 144.574 27.063 144.497 27.013C139.251 22.985 130.427 22.999 124.657 27.035C118.823 31.117 118.155 37.868 123.347 42.125L123.325 42.148L156.68 69.272L55.0169 69.38H54.8809C46.4779 69.39 38.4009 74.903 36.8009 81.87C35.1579 88.968 40.8659 94.856 49.6029 94.888L49.5889 94.919L101.119 94.819L9.16691 165.4C9.04991 165.486 8.92291 165.576 8.81491 165.662C0.140915 172.304 -2.66308 183.349 2.79991 190.338C8.34491 197.446 20.1349 197.459 28.8989 190.379L79.0829 149.308C79.0829 149.308 78.3509 154.852 78.4099 158.18ZM207.365 176.746C197.025 187.281 182.548 193.254 166.885 193.286C151.198 193.313 136.722 187.393 126.382 176.877C121.329 171.752 117.618 165.855 115.328 159.574C113.077 153.393 112.211 146.793 112.791 140.24C113.337 133.778 115.261 127.615 118.331 122.038C121.347 116.557 125.501 111.603 130.631 107.413C140.681 99.223 153.478 94.788 166.861 94.77C180.259 94.752 193.046 99.146 203.107 107.31C208.227 111.481 212.377 116.417 215.393 121.89C218.504 127.496 220.399 133.695 220.956 140.082C221.527 146.631 220.658 153.225 218.409 159.402C216.115 165.702 212.417 171.599 207.365 176.746V176.746Z" fill="#EA7600"/>
</g>
<defs>
<clipPath id="clip0_395:27">
<rect width="256" height="208" fill="white" transform="translate(0 24)"/>
</clipPath>
</defs>
</svg>
