<svg width="51" height="51" viewBox="0 0 51 51" fill="none" xmlns="http://www.w3.org/2000/svg">
<path d="M9.40671 43.3516L5.82715 3.1875H45.1736L41.5893 43.3452L25.4765 47.8125L9.40671 43.3516Z" fill="#1572B6"/>
<path d="M25.5 44.3986L38.5209 40.7888L41.5841 6.47217H25.5V44.3986Z" fill="#33A9DC"/>
<path d="M25.5 21.0232H32.0184L32.4679 15.979H25.5V11.0527H37.8516L37.7336 12.374L36.524 25.9495H25.5V21.0232Z" fill="white"/>
<path d="M25.5306 33.8163L25.5083 33.8226L20.0226 32.3405L19.672 28.4119H14.7266L15.4167 36.1463L25.5067 38.9481L25.5306 38.9418V33.8163Z" fill="#EBEBEB"/>
<path d="M31.5992 25.7405L31.0064 32.337L25.5127 33.8192V38.9447L35.6107 36.1461L35.6856 35.3141L36.5414 25.7405H31.5992Z" fill="white"/>
<path d="M25.5172 11.0527V15.979H13.6182L13.5194 14.8714L13.2947 12.374L13.1768 11.0527H25.5172Z" fill="#EBEBEB"/>
<path d="M25.4996 21.0229V25.9492H20.0825L19.9836 24.8416L19.7605 22.3442L19.6426 21.0229H25.4996Z" fill="#EBEBEB"/>
</svg>
