<svg width="24" height="24" viewBox="0 0 24 24" fill="none" xmlns="http://www.w3.org/2000/svg">
<path d="M16 16C18.2091 16 20 14.2091 20 12C20 9.79086 18.2091 8 16 8C13.7909 8 12 9.79086 12 12C12 14.2091 13.7909 16 16 16Z" fill="#19BCFE"/>
<path fill-rule="evenodd" clip-rule="evenodd" d="M8 24C9.06087 24 10.0783 23.5786 10.8284 22.8284C11.5786 22.0783 12 21.0609 12 20V16H8C6.93913 16 5.92172 16.4214 5.17157 17.1716C4.42143 17.9217 4 18.9391 4 20C4 21.0609 4.42143 22.0783 5.17157 22.8284C5.92172 23.5786 6.93913 24 8 24V24Z" fill="#09CF83"/>
<path fill-rule="evenodd" clip-rule="evenodd" d="M8 16H12V8H8C6.93913 8 5.92172 8.42143 5.17157 9.17157C4.42143 9.92172 4 10.9391 4 12C4 13.0609 4.42143 14.0783 5.17157 14.8284C5.92172 15.5786 6.93913 16 8 16V16Z" fill="#A259FF"/>
<path fill-rule="evenodd" clip-rule="evenodd" d="M8 8H12V0H8C6.93913 0 5.92172 0.421427 5.17157 1.17157C4.42143 1.92172 4 2.93913 4 4C4 5.06087 4.42143 6.07828 5.17157 6.82843C5.92172 7.57857 6.93913 8 8 8V8Z" fill="#F24E1E"/>
<path fill-rule="evenodd" clip-rule="evenodd" d="M16 8H12V0H16C17.0609 0 18.0783 0.421427 18.8284 1.17157C19.5786 1.92172 20 2.93913 20 4C20 5.06087 19.5786 6.07828 18.8284 6.82843C18.0783 7.57857 17.0609 8 16 8Z" fill="#FF7262"/>
</svg>
