<svg width="16" height="16" viewBox="0 0 16 16" fill="none" xmlns="http://www.w3.org/2000/svg">
<path d="M8 0C3.58175 0 0 3.58169 0 8C0 12.4183 3.58175 16 8 16C12.4183 16 16 12.4183 16 8C16 3.58169 12.4183 0 8 0ZM1.719 8.08337L7.91656 14.281C4.51344 14.2366 1.76331 11.4866 1.719 8.08337V8.08337ZM9.406 14.124L1.876 6.594C2.51463 3.8015 5.01394 1.71794 8 1.71794C10.0873 1.71794 11.9366 2.73625 13.0789 4.30294L12.2091 5.07037C11.2825 3.7415 9.74287 2.87181 8 2.87181C5.78094 2.87181 3.89125 4.28131 3.17694 6.25387L9.74625 12.8231C11.3416 12.2454 12.5685 10.8987 12.9794 9.23075H10.2565V8H14.2821C14.2821 10.9861 12.1986 13.4854 9.40606 14.1239L9.406 14.124Z" fill="#744C9E"/>
</svg>
