<svg width="16" height="18" viewBox="0 0 16 18" fill="none" xmlns="http://www.w3.org/2000/svg">
<g clip-path="url(#clip0)">
<path fill-rule="evenodd" clip-rule="evenodd" d="M9.53602 2.06019L13.2326 4.19456C13.3394 4.08164 13.4618 3.98472 13.5963 3.90681C14.3629 3.46606 15.3408 3.72775 15.7861 4.49444C16.2268 5.26113 15.9651 6.23894 15.1985 6.68425C15.065 6.76109 14.9212 6.81834 14.7715 6.85425V11.1246C14.9196 11.1605 15.0618 11.2174 15.1939 11.2934C15.9651 11.7388 16.2268 12.7166 15.7815 13.4833C15.3408 14.2499 14.3583 14.5116 13.5916 14.0709C13.4431 13.9857 13.3093 13.8771 13.1954 13.7493L9.52127 15.8705C9.57507 16.0334 9.6024 16.2039 9.6022 16.3755C9.6022 17.2569 8.88608 17.9778 8.00002 17.9778C7.11395 17.9778 6.39783 17.2615 6.39783 16.3755C6.39783 16.218 6.42045 16.0659 6.46264 15.9222L2.76702 13.7884C2.66146 13.8991 2.54071 13.9942 2.40839 14.0709C1.63714 14.5116 0.659266 14.2499 0.218516 13.4833C-0.222171 12.7166 0.0395162 11.7388 0.806141 11.2934C0.938209 11.2174 1.08043 11.1605 1.22852 11.1245V6.85425C1.07879 6.81834 0.935007 6.76109 0.801579 6.68425C0.0348911 6.24356 -0.226796 5.26113 0.213954 4.49444C0.654704 3.72775 1.63708 3.46606 2.40377 3.90681C2.53746 3.98431 2.65933 4.0806 2.76564 4.19275L6.46333 2.05781C6.41974 1.90987 6.39768 1.75642 6.39783 1.60219C6.39783 0.71625 7.11395 0 8.00002 0C8.88608 0 9.6022 0.716188 9.6022 1.60219C9.6022 1.76144 9.57908 1.91513 9.53602 2.06019ZM9.15089 2.71781L12.8563 4.85719C12.7973 5.06344 12.7804 5.27945 12.8066 5.49238C12.8327 5.70531 12.9015 5.91079 13.0086 6.09662C13.2342 6.489 13.6016 6.74913 14.0095 6.8505V11.1261C13.9886 11.1312 13.968 11.1368 13.9474 11.1426L9.10783 2.76062C9.12245 2.74662 9.13683 2.73237 9.15089 2.71788V2.71781ZM6.8932 2.76156L2.0537 11.1434C2.03278 11.1374 2.01173 11.1318 1.99058 11.1266V6.8505C2.39839 6.74913 2.76583 6.489 2.99139 6.09662C3.09879 5.91044 3.16758 5.70452 3.19364 5.49116C3.2197 5.2778 3.2025 5.06138 3.14308 4.85481L6.84745 2.71606C6.86239 2.7315 6.87764 2.74669 6.8932 2.7615V2.76156ZM8.4477 3.14125L13.2861 11.5212C13.1752 11.627 13.0802 11.7482 13.004 11.8811C12.928 12.0131 12.8711 12.1553 12.8351 12.3034H3.16502C3.129 12.1553 3.0721 12.0131 2.99602 11.8811C2.91952 11.7491 2.8247 11.6287 2.71439 11.5233L7.5537 3.14162C7.69879 3.1834 7.84904 3.20453 8.00002 3.20438C8.15545 3.20438 8.30564 3.18237 8.4477 3.14125ZM9.18489 15.2961L12.8663 13.1706C12.8552 13.1359 12.8454 13.1009 12.8367 13.0655H3.16295C3.15783 13.0863 3.15227 13.1069 3.14633 13.1275L6.8457 15.2634C6.99509 15.1081 7.17437 14.9846 7.37275 14.9004C7.57113 14.8161 7.7845 14.7729 8.00002 14.7733C8.22307 14.7729 8.44373 14.8192 8.6478 14.9093C8.85187 14.9993 9.03483 15.1311 9.18489 15.2961Z" fill="#E535AB"/>
</g>
<defs>
<clipPath id="clip0">
<rect width="16" height="18" fill="white"/>
</clipPath>
</defs>
</svg>
