<svg width="12" height="12" viewBox="0 0 12 12" fill="none" xmlns="http://www.w3.org/2000/svg">
<path d="M0 0H12V12H0V0Z" fill="#F7DF1E"/>
<path d="M3.15532 10.0282L4.0736 9.47242C4.25079 9.78653 4.41195 10.0523 4.79852 10.0523C5.16907 10.0523 5.40274 9.90737 5.40274 9.34356V5.50928H6.53041V9.3595C6.53041 10.5275 5.84576 11.0591 4.84685 11.0591C3.94474 11.0591 3.4211 10.5919 3.15527 10.0281" fill="black"/>
<path d="M7.14262 9.90713L8.06081 9.37552C8.30255 9.77025 8.6167 10.0602 9.17245 10.0602C9.63975 10.0602 9.93769 9.8266 9.93769 9.50438C9.93769 9.11775 9.63159 8.98078 9.11606 8.75531L8.8342 8.63438C8.02059 8.28811 7.48092 7.85311 7.48092 6.93483C7.48092 6.08902 8.12531 5.44458 9.13223 5.44458C9.84914 5.44458 10.3647 5.69433 10.7352 6.34678L9.85711 6.91069C9.66375 6.56433 9.45441 6.42741 9.13219 6.42741C8.80191 6.42741 8.59247 6.63685 8.59247 6.91069C8.59247 7.24899 8.80191 7.386 9.28519 7.59544L9.56709 7.71624C10.5257 8.1271 11.0654 8.54592 11.0654 9.4883C11.0654 10.5033 10.2679 11.0591 9.19659 11.0591C8.14945 11.0591 7.47281 10.5597 7.14258 9.90717" fill="black"/>
</svg>
