<svg width="29" height="28" viewBox="0 0 29 28" fill="none" xmlns="http://www.w3.org/2000/svg">
<path d="M9.29855 27.5428C8.62498 27.5428 7.9889 27.2457 7.55855 26.7071L1.01032 18.6281C0.579969 18.0895 0.411633 17.4024 0.579969 16.7337L2.91866 6.64898C3.06831 5.98036 3.51735 5.44172 4.13485 5.14463L13.6019 0.650009C13.9013 0.501575 14.2381 0.427246 14.5748 0.427246C14.9116 0.427246 15.2483 0.501463 15.5477 0.650122L25.0149 5.12607C25.6322 5.42317 26.0813 5.9618 26.2309 6.63043L28.5696 16.7152C28.7194 17.3838 28.5696 18.071 28.1394 18.6096L21.5909 26.6886C21.1606 27.2085 20.5245 27.5243 19.8509 27.5243L9.29877 27.5428H9.29855Z" fill="#326DE6"/>
<path d="M14.5564 0.891502C14.8184 0.891502 15.0803 0.947165 15.3235 1.0586L24.7907 5.53455C25.2771 5.77598 25.6513 6.22174 25.7635 6.74182L28.1022 16.8265C28.2332 17.3652 28.1022 17.9224 27.7467 18.3494L21.1984 26.4285C20.8616 26.8556 20.3377 27.097 19.7952 27.097H9.29901C8.75639 27.097 8.23258 26.8556 7.8958 26.4285L1.34746 18.3494C1.01068 17.9224 0.87961 17.3652 0.991985 16.8265L3.33068 6.74182C3.46163 6.20318 3.81711 5.75743 4.30354 5.53455L13.7708 1.04016C14.014 0.947278 14.2946 0.891615 14.5565 0.891615L14.5564 0.891502ZM14.5564 0.0185547C14.1635 0.0185547 13.7707 0.111438 13.3964 0.278539L3.92937 4.77316C3.18092 5.12602 2.65711 5.77598 2.46996 6.5746L0.131274 16.6594C-0.0557536 17.4581 0.131274 18.2752 0.6552 18.9253L7.20354 27.0043C7.70877 27.6357 8.4758 27.9885 9.28032 27.9885H19.7764C20.5809 27.9885 21.3481 27.6357 21.8532 27.0043L28.4016 18.9252C28.9254 18.2938 29.1126 17.4581 28.9254 16.6593L26.5868 6.5746C26.3997 5.77598 25.8758 5.12602 25.1275 4.77316L15.6977 0.278426C15.3422 0.111438 14.9494 0.0185547 14.5564 0.0185547Z" fill="white"/>
<path d="M24.0418 16.0279C24.0231 16.0279 24.0231 16.0279 24.0418 16.0279H24.0231C24.0044 16.0279 23.9858 16.0279 23.9858 16.0094C23.9484 16.0094 23.911 15.9908 23.8735 15.9908C23.7425 15.9722 23.6303 15.9537 23.518 15.9537C23.4618 15.9537 23.4058 15.9537 23.3309 15.935H23.3122C22.9193 15.8979 22.6012 15.8608 22.3018 15.7679C22.1709 15.7121 22.1335 15.6379 22.096 15.5636C22.096 15.545 22.0773 15.545 22.0773 15.5265L21.8341 15.4523C21.949 14.5786 21.9046 13.6915 21.7031 12.8334C21.4989 11.9682 21.1443 11.1449 20.6554 10.4005L20.8425 10.2334V10.1963C20.8425 10.1034 20.8612 10.0105 20.936 9.91761C21.1605 9.71329 21.4412 9.54619 21.778 9.34187C21.8341 9.30476 21.8902 9.2862 21.9464 9.24898C22.0586 9.19332 22.1522 9.13766 22.2645 9.06333C22.2831 9.04477 22.3205 9.02622 22.358 8.98911C22.3767 8.97045 22.3954 8.97044 22.3954 8.95189C22.6573 8.72902 22.7135 8.35759 22.5264 8.11605C22.4328 7.98606 22.2644 7.91184 22.096 7.91184C21.9465 7.91184 21.8154 7.9675 21.6844 8.06039L21.6471 8.0975C21.6097 8.11605 21.5909 8.15327 21.5535 8.17183C21.4599 8.26471 21.385 8.33893 21.3103 8.43181C21.2729 8.46892 21.2355 8.52469 21.1793 8.5618C20.9173 8.84045 20.6741 9.06333 20.4309 9.23043C20.3748 9.26754 20.3187 9.2862 20.2625 9.2862C20.2252 9.2862 20.1877 9.2862 20.1503 9.26754H20.1129L19.8883 9.4162C19.645 9.15621 19.3831 8.93334 19.1212 8.71046C17.9935 7.83539 16.6362 7.30032 15.2109 7.16889L15.1922 6.92746L15.1548 6.89035C15.0986 6.83457 15.0239 6.77891 15.005 6.64892C14.9864 6.35171 15.0239 6.0174 15.0612 5.64598V5.62742C15.0612 5.57165 15.0799 5.49743 15.0986 5.44166C15.1173 5.33033 15.136 5.21878 15.1548 5.08879V4.92169C15.1548 4.58738 14.8928 4.30884 14.5748 4.30884C14.425 4.30884 14.2754 4.38305 14.1631 4.49449C14.051 4.60593 13.9948 4.75448 13.9948 4.92169V5.07024C13.9948 5.20023 14.0135 5.31167 14.0509 5.4231C14.0696 5.47888 14.0696 5.53454 14.0883 5.60887V5.62742C14.1256 5.99885 14.1818 6.33316 14.1445 6.63036C14.1258 6.76036 14.0509 6.81602 13.9948 6.87179L13.9574 6.9089L13.9386 7.15033C13.6018 7.18744 13.265 7.22455 12.9283 7.29888C11.4877 7.61464 10.2154 8.33904 9.22385 9.37897L9.03671 9.24898H8.99933C8.96195 9.24898 8.92445 9.26754 8.88707 9.26754C8.83088 9.26754 8.77481 9.24898 8.71862 9.21187C8.4754 9.04477 8.23219 8.80323 7.97028 8.52469C7.9329 8.48759 7.89552 8.43181 7.83933 8.3947C7.76445 8.30182 7.68957 8.22749 7.596 8.13472C7.57731 8.11605 7.53993 8.09761 7.50255 8.06039C7.48385 8.04183 7.46516 8.04183 7.46516 8.02328C7.34924 7.92821 7.20386 7.87571 7.0535 7.87462C6.88505 7.87462 6.71671 7.94895 6.62314 8.07894C6.436 8.32037 6.49219 8.69179 6.7541 8.91467C6.77279 8.91467 6.77279 8.93334 6.79148 8.93334C6.82886 8.95189 6.84767 8.989 6.88505 9.00755C6.99731 9.08177 7.09088 9.13754 7.20314 9.19332C7.25933 9.21187 7.3154 9.24898 7.37159 9.2862C7.70826 9.49041 7.98897 9.65763 8.2135 9.86195C8.30707 9.95472 8.30707 10.0476 8.30707 10.1405V10.1776L8.4941 10.3448C8.45671 10.4005 8.41933 10.4377 8.40052 10.4934C7.46505 11.9606 7.10957 13.6878 7.35279 15.3965L7.10957 15.4707C7.10957 15.4894 7.09088 15.4894 7.09088 15.5078C7.0535 15.5822 6.99731 15.6565 6.88505 15.7121C6.60445 15.805 6.26767 15.8423 5.87481 15.8794H5.856C5.79993 15.8794 5.72505 15.8794 5.66897 15.8979C5.55671 15.8979 5.44445 15.9165 5.3135 15.935C5.27612 15.935 5.23873 15.9537 5.20124 15.9537C5.18255 15.9537 5.16385 15.9537 5.14505 15.9722C4.80826 16.0465 4.60243 16.3622 4.65862 16.6593C4.71481 16.9194 4.95802 17.0866 5.25731 17.0866C5.3135 17.0866 5.35088 17.0866 5.40707 17.068C5.42576 17.068 5.44445 17.068 5.44445 17.0494C5.48183 17.0494 5.51922 17.0308 5.5566 17.0308C5.68767 16.9937 5.78124 16.9566 5.8935 16.9009C5.94957 16.8823 6.00565 16.8451 6.06183 16.8266H6.08053C6.436 16.6965 6.7541 16.5851 7.0535 16.548H7.09088C7.20314 16.548 7.27802 16.6037 7.3341 16.6409C7.35279 16.6409 7.35279 16.6594 7.37148 16.6594L7.6335 16.6223C8.08254 17.9966 8.94314 19.2224 10.0845 20.1139C10.3464 20.3181 10.6083 20.4853 10.889 20.6525L10.7767 20.8938C10.7767 20.9125 10.7954 20.9125 10.7954 20.9309C10.8328 21.0053 10.8702 21.0982 10.8328 21.2281C10.7206 21.5068 10.5522 21.7853 10.3464 22.1011V22.1197C10.309 22.1754 10.2716 22.2125 10.2342 22.2682C10.1593 22.3611 10.1031 22.454 10.0283 22.5654C10.0096 22.584 9.99088 22.6211 9.97219 22.6583C9.97219 22.6768 9.9535 22.6954 9.9535 22.6954C9.80385 23.0112 9.91611 23.364 10.1967 23.494C10.2715 23.5311 10.3464 23.5498 10.4212 23.5498C10.6458 23.5498 10.8703 23.4011 10.9825 23.1968C10.9825 23.1783 11.0012 23.1597 11.0012 23.1597C11.0199 23.1226 11.0386 23.0855 11.0573 23.0668C11.1135 22.9368 11.1322 22.8439 11.1696 22.7325L11.2258 22.5654C11.3567 22.194 11.4503 21.8968 11.6186 21.6368C11.6934 21.5254 11.7871 21.5068 11.8618 21.4696C11.8805 21.4696 11.8805 21.4696 11.8992 21.451L12.0303 21.2096C12.8535 21.5254 13.7516 21.6925 14.6496 21.6925C15.1922 21.6925 15.7535 21.6368 16.2774 21.5068C16.6071 21.4336 16.932 21.3406 17.2503 21.2281L17.3624 21.4325C17.3812 21.4325 17.3812 21.4325 17.3999 21.451C17.4935 21.4696 17.5683 21.5068 17.6431 21.6182C17.7928 21.8782 17.905 22.194 18.036 22.5468V22.5654L18.0922 22.7325C18.1296 22.8439 18.1483 22.9554 18.2043 23.0668C18.2231 23.1039 18.2418 23.1226 18.2605 23.1597C18.2605 23.1783 18.2793 23.1968 18.2793 23.1968C18.3915 23.4197 18.616 23.5498 18.8405 23.5498C18.9154 23.5498 18.9903 23.5311 19.065 23.494C19.196 23.4198 19.3083 23.3082 19.3458 23.1597C19.3831 23.0112 19.3831 22.8439 19.3084 22.6954C19.3084 22.6768 19.2896 22.6768 19.2896 22.6583C19.2709 22.6212 19.2522 22.5841 19.2335 22.5654C19.1773 22.454 19.1025 22.3611 19.0277 22.2682C18.9903 22.2125 18.9529 22.1754 18.9155 22.1198V22.1011C18.7096 21.7853 18.5224 21.5068 18.429 21.2281C18.3916 21.0982 18.429 21.0239 18.4477 20.9311C18.4477 20.9125 18.4664 20.9125 18.4664 20.8939L18.3728 20.6711C19.3645 20.0953 20.2064 19.278 20.8425 18.2752C21.1793 17.7551 21.4412 17.1794 21.6283 16.6037L21.8528 16.6408C21.8716 16.6408 21.8716 16.6222 21.8902 16.6222C21.965 16.5851 22.0212 16.5294 22.1335 16.5294H22.1709C22.4703 16.5665 22.7883 16.6779 23.1439 16.808H23.1625C23.2186 16.8265 23.2747 16.8636 23.3309 16.8822C23.4431 16.938 23.5367 16.9751 23.6677 17.0123C23.705 17.0123 23.7424 17.0308 23.7799 17.0308C23.7986 17.0308 23.8173 17.0308 23.836 17.0494C23.8922 17.068 23.9296 17.068 23.9858 17.068C24.2664 17.068 24.5096 16.8823 24.5844 16.6409C24.5844 16.418 24.3786 16.1208 24.0418 16.028V16.0279ZM15.3792 15.1179L14.556 15.5079L13.7328 15.1179L13.5271 14.245L14.0883 13.5393H15.005L15.5664 14.245L15.3793 15.1179H15.3792ZM20.2625 13.1864C20.4077 13.8006 20.4519 14.4339 20.3935 15.0621L17.5309 14.245C17.269 14.1708 17.1193 13.9107 17.1754 13.6507C17.1941 13.5764 17.2316 13.5021 17.2877 13.4464L19.5516 11.422C19.8696 11.942 20.1128 12.5363 20.2625 13.1863V13.1864ZM18.6535 10.3077L16.2025 12.0349C15.9967 12.1649 15.716 12.1277 15.5477 11.9235C15.4916 11.8677 15.4729 11.7934 15.4541 11.7192L15.2858 8.69179C16.56 8.83744 17.747 9.40699 18.6535 10.3077ZM13.2277 8.78457C13.4335 8.74746 13.6205 8.71035 13.8264 8.67324L13.658 11.6447C13.6393 11.9047 13.4335 12.1276 13.1528 12.1276C13.078 12.1276 12.9845 12.109 12.9283 12.0719L10.4399 10.3077C11.2071 9.54619 12.1612 9.02611 13.2277 8.78468V8.78457ZM9.54183 11.4219L11.7683 13.3905C11.9741 13.5577 11.9928 13.8734 11.8245 14.0777C11.7683 14.1519 11.6935 14.2077 11.5999 14.2263L8.69993 15.0621C8.58767 13.7992 8.86826 12.5177 9.54183 11.4219ZM9.0366 16.455L12.0116 15.9535C12.2548 15.9349 12.4793 16.1021 12.5354 16.3436C12.5541 16.4549 12.5541 16.5479 12.5167 16.6408L11.3754 19.3708C10.3277 18.7022 9.48576 17.6807 9.03671 16.455H9.0366ZM15.8658 20.1509C15.4354 20.2438 15.005 20.2994 14.556 20.2994C13.9012 20.2994 13.265 20.1881 12.6665 20.0023L14.1445 17.3465C14.2941 17.1793 14.5373 17.1051 14.7431 17.2165C14.8305 17.2696 14.9067 17.339 14.9677 17.4207L16.4083 20.0023C16.2399 20.058 16.0528 20.0952 15.8656 20.1509H15.8658ZM19.5141 17.5694C19.0464 18.3122 18.4289 18.9065 17.718 19.3708L16.5393 16.5663C16.4831 16.3436 16.5767 16.1021 16.8012 15.9906C16.876 15.9535 16.9696 15.9349 17.0631 15.9349L20.0567 16.4364C19.9444 16.845 19.7573 17.2165 19.5141 17.5694Z" fill="white"/>
</svg>
