<svg width="25" height="26" viewBox="0 0 25 26" fill="none" xmlns="http://www.w3.org/2000/svg">
<path d="M24.9034 15.5691C24.7535 15.1112 24.3608 14.7923 23.853 14.7158C23.6135 14.6798 23.3393 14.6951 23.0148 14.7626C22.4492 14.8803 22.0296 14.9251 21.7233 14.9337C22.8793 12.9655 23.8192 10.7211 24.3603 8.60826C25.2353 5.19192 24.7677 3.63556 24.2214 2.93159C22.7754 1.06826 20.6657 0.067259 18.1206 0.0366302C16.7629 0.0198878 15.571 0.290229 14.9492 0.484638C14.3703 0.381623 13.7478 0.324107 13.0947 0.313471C11.8704 0.293774 10.7886 0.562933 9.86433 1.11612C9.35261 0.941607 8.53132 0.695592 7.58289 0.538607C5.35222 0.169289 3.55437 0.457062 2.23933 1.39395C0.646948 2.5283 -0.0912355 4.49918 0.045288 7.25183C0.0886473 8.12578 0.573413 10.7849 1.33669 13.3067C1.77537 14.7562 2.24314 15.9599 2.72703 16.8846C3.41326 18.196 4.14753 18.9682 4.97185 19.2455C5.43386 19.4007 6.27332 19.5094 7.15623 18.7679C7.26814 18.9046 7.41746 19.0404 7.6156 19.1665C7.86726 19.3266 8.17498 19.4573 8.4823 19.5349C9.58982 19.8141 10.6272 19.7442 11.5123 19.3529C11.5177 19.5116 11.5219 19.6633 11.5255 19.7943C11.5313 20.0067 11.5372 20.215 11.5449 20.4098C11.5973 21.7269 11.6862 22.7511 11.9495 23.4677C11.9639 23.507 11.9834 23.5671 12.0039 23.6308C12.1352 24.0364 12.3549 24.7154 12.9136 25.2471C13.4923 25.7979 14.1922 25.9668 14.8332 25.9668C15.1547 25.9668 15.4614 25.9243 15.7304 25.8661C16.6894 25.6588 17.7786 25.3431 18.5665 24.2117C19.3114 23.1422 19.6735 21.5312 19.739 18.993C19.7475 18.9212 19.7553 18.8527 19.7629 18.7874L19.7785 18.6532L19.954 18.6688L19.9992 18.6718C20.976 18.7167 22.1703 18.5079 22.9038 18.1642C23.4834 17.893 25.3407 16.9041 24.9034 15.5691Z" fill="black"/>
<path d="M23.2331 15.8286C20.3288 16.4328 20.1291 15.4412 20.1291 15.4412C23.1955 10.8525 24.4775 5.0278 23.3713 3.60223C20.3533 -0.286444 15.1292 1.55266 15.042 1.60033L15.014 1.60545C14.4402 1.4853 13.7981 1.4138 13.0763 1.40188C11.7622 1.38021 10.7654 1.74934 10.0089 2.32784C10.0089 2.32784 0.68957 -1.544 1.12307 7.19732C1.21525 9.05691 3.76604 21.2681 6.80842 17.5798C7.92043 16.231 8.99494 15.0907 8.99494 15.0907C9.52853 15.4482 10.1674 15.6306 10.8371 15.5651L10.8892 15.5206C10.873 15.688 10.8804 15.8518 10.91 16.0457C10.1262 16.9288 10.3566 17.0838 8.78977 17.4091C7.20432 17.7386 8.13566 18.3252 8.74377 18.4787C9.48098 18.6645 11.1864 18.9279 12.3388 17.301L12.2929 17.4866C12.5999 17.7347 12.8155 19.1001 12.7794 20.338C12.7433 21.5757 12.7192 22.4255 12.9611 23.0893C13.2031 23.7531 13.4443 25.2466 15.504 24.8016C17.225 24.4296 18.1169 23.4657 18.241 21.8579C18.329 20.7149 18.5283 20.8839 18.5408 19.8619L18.7007 19.3781C18.885 17.8287 18.73 17.3288 19.7903 17.5613L20.0481 17.5841C20.8283 17.6199 21.8498 17.4575 22.4493 17.1765C23.7402 16.5724 24.5058 15.5636 23.2329 15.8286H23.2331Z" fill="#336791"/>
<path d="M10.5544 8.02896C10.2927 7.99222 10.0557 8.0262 9.93574 8.11779C9.86835 8.1693 9.84745 8.22898 9.84179 8.27005C9.82675 8.37887 9.90234 8.49922 9.94882 8.56127C10.0803 8.73696 10.2723 8.85771 10.4623 8.8843C10.4898 8.88824 10.5173 8.89001 10.5445 8.89001C10.8614 8.89001 11.1496 8.64114 11.175 8.45746C11.2067 8.2274 10.8756 8.07406 10.5544 8.02905" fill="white"/>
<path d="M19.2249 8.03636C19.1999 7.85603 18.8817 7.80462 18.5797 7.84697C18.2782 7.88932 17.9858 8.02661 18.0102 8.20733C18.0297 8.34787 18.2814 8.58778 18.5793 8.58778C18.6045 8.58778 18.6298 8.5861 18.6554 8.58246C18.8543 8.55468 19.0002 8.42734 19.0695 8.35397C19.175 8.24209 19.2361 8.11741 19.2249 8.03636Z" fill="white"/>
<path d="M24.1991 15.7601C24.0884 15.4224 23.7319 15.3137 23.1397 15.437C21.3814 15.803 20.7517 15.5495 20.545 15.396C21.9117 13.2963 23.036 10.7581 23.6426 8.39006C23.9299 7.26832 24.0886 6.22654 24.1015 5.37741C24.1159 4.44545 23.9585 3.76058 23.6339 3.34222C22.3251 1.65566 20.4042 0.750983 18.079 0.726165C16.4805 0.708044 15.1299 1.1206 14.868 1.23661C14.3167 1.09834 13.7156 1.01345 13.0612 1.00261C11.8612 0.983013 10.8239 1.27276 9.96512 1.86337C9.59207 1.72332 8.62801 1.38956 7.44901 1.19801C5.41072 0.867097 3.791 1.11784 2.63514 1.94363C1.25594 2.92907 0.61922 4.69057 0.74256 7.17909C0.784064 8.01631 1.25711 10.5919 2.0036 13.0584C2.98621 16.3049 4.05438 18.1427 5.1782 18.5208C5.30975 18.565 5.46141 18.5959 5.62869 18.5959C6.03865 18.5959 6.54129 18.4096 7.06424 17.7756C7.70209 17.0039 8.3619 16.251 9.04285 15.5177C9.48465 15.7568 9.97 15.8904 10.4664 15.9038C10.4674 15.9169 10.4686 15.93 10.4698 15.943C10.3844 16.0457 10.3007 16.15 10.2188 16.2557C9.87488 16.696 9.8033 16.7877 8.69617 17.0175C8.38123 17.0831 7.54481 17.2569 7.5325 17.8482C7.51922 18.4943 8.52127 18.7656 8.63543 18.7944C9.03328 18.8948 9.41658 18.9444 9.78211 18.9444C10.6711 18.9444 11.4534 18.6497 12.0786 18.0796C12.0594 20.3828 12.1546 22.6522 12.4288 23.3437C12.6534 23.9098 13.202 25.2932 14.935 25.2931C15.1893 25.2931 15.4692 25.2633 15.7771 25.1967C17.5858 24.8057 18.3713 23.9995 18.6751 22.2222C18.8377 21.2723 19.1167 19.0041 19.2479 17.7874C19.5249 17.8745 19.8814 17.9144 20.2669 17.9143C21.0708 17.9143 21.9984 17.7421 22.5802 17.4698C23.2337 17.1637 24.413 16.4126 24.1991 15.7601ZM19.8919 7.53856C19.8859 7.89773 19.8369 8.22382 19.7849 8.56418C19.729 8.93025 19.6712 9.30873 19.6566 9.76816C19.6423 10.2153 19.6976 10.6801 19.7512 11.1297C19.8594 12.0377 19.9704 12.9726 19.5406 13.895C19.4692 13.7674 19.4056 13.6355 19.3502 13.5001C19.2968 13.3696 19.1807 13.1598 19.0201 12.8694C18.3952 11.7392 16.9318 9.09255 17.6809 8.01257C17.9041 7.69111 18.4704 7.3606 19.8919 7.53856ZM18.1688 1.45348C20.2522 1.49986 21.9003 2.28587 23.0671 3.78954C23.962 4.94289 22.9765 10.1909 20.1237 14.7183C20.095 14.6815 20.0662 14.6448 20.0372 14.6083L20.0011 14.5628C20.7383 13.335 20.5941 12.1202 20.4658 11.0431C20.4131 10.6011 20.3633 10.1837 20.376 9.7915C20.389 9.37589 20.4435 9.01938 20.4963 8.67468C20.561 8.24991 20.6269 7.81038 20.6088 7.29225C20.6223 7.23788 20.6278 7.17367 20.6207 7.09745C20.5743 6.60059 20.0118 5.11357 18.8653 3.76767C18.2382 3.0315 17.3236 2.20767 16.0749 1.65202C16.612 1.53975 17.3465 1.43506 18.1688 1.45348ZM6.51082 17.3115C5.93465 18.0102 5.5368 17.8762 5.40594 17.8323C4.5534 17.5455 3.56414 15.7283 2.69197 12.8466C1.93729 10.3532 1.49627 7.84583 1.46131 7.14275C1.35115 4.91916 1.88563 3.3695 3.04998 2.53671C4.9449 1.18156 8.06033 1.99268 9.31219 2.40405C9.29422 2.42198 9.27547 2.43872 9.2577 2.45694C7.2034 4.54915 7.25213 8.12376 7.25721 8.34229C7.25701 8.4266 7.26404 8.54596 7.27361 8.71013C7.30897 9.31138 7.37479 10.4304 7.19901 11.6976C7.03572 12.8752 7.39569 14.0277 8.18641 14.8598C8.26756 14.9451 8.35285 15.0262 8.44197 15.1029C8.09002 15.483 7.32508 16.3237 6.51082 17.3115ZM8.70604 14.3576C8.06873 13.687 7.77928 12.7541 7.9118 11.798C8.09734 10.4594 8.02889 9.29356 7.99207 8.66719C7.9869 8.57954 7.98231 8.50273 7.97967 8.44216C8.27977 8.17379 9.67049 7.42235 10.6623 7.65152C11.1148 7.75601 11.3906 8.06683 11.5053 8.60141C12.0986 11.3691 11.5838 12.5227 11.1701 13.4497C11.0848 13.6407 11.0043 13.8212 10.9355 14.0079L10.8822 14.1523C10.7472 14.5173 10.6217 14.8567 10.5438 15.1789C9.86629 15.1769 9.20721 14.885 8.70604 14.3576V14.3576ZM8.81004 18.0902C8.61219 18.0404 8.43426 17.9538 8.32986 17.882C8.41707 17.8407 8.57225 17.7843 8.84139 17.7284C10.1438 17.4581 10.345 17.2672 10.7843 16.7047C10.8849 16.5757 10.9991 16.4296 11.1572 16.2515L11.1574 16.2513C11.3929 15.9854 11.5006 16.0305 11.6959 16.1123C11.8542 16.1782 12.0084 16.3784 12.0709 16.5986C12.1005 16.7026 12.1337 16.8999 12.025 17.0536C11.1074 18.3492 9.77029 18.3326 8.81004 18.0902ZM15.6263 24.487C14.033 24.8313 13.4688 24.0114 13.0971 23.0742C12.8571 22.4691 12.7391 19.7404 12.8228 16.7271C12.8239 16.687 12.8182 16.6483 12.8073 16.6119C12.7975 16.5399 12.7826 16.4688 12.7628 16.3989C12.6384 15.9605 12.3351 15.5937 11.9714 15.4417C11.8268 15.3813 11.5616 15.2705 11.2429 15.3527C11.3108 15.0703 11.4287 14.7513 11.5565 14.4059L11.6101 14.2606C11.6705 14.0969 11.7463 13.9272 11.8263 13.7475C12.2593 12.7777 12.8521 11.4492 12.2087 8.44807C11.9677 7.32396 11.1628 6.77501 9.94266 6.90254C9.21121 6.97887 8.54197 7.27649 8.20819 7.44716C8.13641 7.4838 8.07078 7.51926 8.00945 7.55372C8.10262 6.42115 8.45457 4.30451 9.77117 2.96532C10.6002 2.12229 11.7042 1.70589 13.0493 1.72835C15.6997 1.77207 17.3993 3.14377 18.3585 4.28688C19.185 5.27183 19.6326 6.26407 19.8112 6.79923C18.468 6.66145 17.5544 6.92884 17.0913 7.59657C16.0838 9.04902 17.6425 11.8681 18.3916 13.2229C18.529 13.4712 18.6475 13.6858 18.6848 13.777C18.9288 14.3732 19.2446 14.7713 19.4752 15.0618C19.5459 15.1508 19.6144 15.2372 19.6666 15.3127C19.2597 15.4309 18.529 15.7042 18.5956 17.0703C18.5419 17.7558 18.1599 20.965 17.9659 22.0989C17.7097 23.5968 17.1632 24.1547 15.6263 24.4871V24.487ZM22.2771 16.8115C21.8611 17.0062 21.1649 17.1523 20.5036 17.1837C19.7731 17.2181 19.4013 17.1011 19.3138 17.0292C19.2727 16.1778 19.5869 16.0889 19.9194 15.9948C19.9717 15.98 20.0226 15.9655 20.0719 15.9482C20.1024 15.9733 20.1359 15.9982 20.1726 16.0226C20.7597 16.4134 21.8069 16.4556 23.2853 16.1478L23.3015 16.1446C23.1021 16.3326 22.7609 16.5849 22.2771 16.8115Z" fill="white"/>
</svg>
