<svg width="16" height="16" viewBox="0 0 16 16" fill="none" xmlns="http://www.w3.org/2000/svg">
<path fill-rule="evenodd" clip-rule="evenodd" d="M12.6045 12.1048L6.36903 13.9638C6.32559 13.977 6.27947 13.9787 6.23518 13.9687C6.19089 13.9587 6.14995 13.9374 6.11635 13.9069C6.08275 13.8764 6.05764 13.8377 6.04348 13.7945C6.02931 13.7514 6.02657 13.7053 6.03553 13.6608L8.26353 2.90533C8.27295 2.8614 8.2959 2.82152 8.32916 2.7913C8.36241 2.76108 8.4043 2.74204 8.44894 2.73685C8.49357 2.73167 8.53871 2.7406 8.578 2.76238C8.6173 2.78417 8.64878 2.81773 8.66803 2.85833L12.7925 11.6888C12.811 11.7281 12.8208 11.7709 12.8211 11.8143C12.8215 11.8577 12.8124 11.9007 12.7945 11.9402C12.7766 11.9798 12.7504 12.015 12.7176 12.0434C12.6848 12.0718 12.6462 12.0928 12.6045 12.1048V12.1048ZM13.674 11.6658L8.89953 1.44133C8.84084 1.31522 8.7489 1.20748 8.63359 1.1297C8.51827 1.05191 8.38394 1.00701 8.24503 0.99983C8.10611 0.990275 7.96724 1.01925 7.84373 1.08356C7.72022 1.14788 7.61686 1.24503 7.54503 1.36433L2.36753 9.82383C2.28855 9.95188 2.24748 10.0997 2.24907 10.2501C2.25066 10.4006 2.29486 10.5475 2.37653 10.6738L4.90853 14.6283C5.00394 14.7761 5.14465 14.889 5.3096 14.9501C5.47455 15.0112 5.65486 15.0173 5.82353 14.9673L13.1735 12.7758C13.2845 12.7435 13.3872 12.6875 13.4745 12.6117C13.5618 12.5358 13.6316 12.442 13.6791 12.3366C13.7266 12.2312 13.7507 12.1167 13.7498 12.0011C13.7488 11.8855 13.7228 11.7714 13.6735 11.6668L13.674 11.6658Z" fill="#0C344B"/>
</svg>
