<svg width="24" height="23" viewBox="0 0 24 23" fill="none" xmlns="http://www.w3.org/2000/svg">
<g clip-path="url(#clip0)">
<path d="M16.6295 15.9994C17.5151 15.9072 18.187 15.1396 18.1565 14.2182C18.126 13.297 17.3624 12.56 16.4462 12.56H16.3852C15.4383 12.5907 14.7053 13.3891 14.7359 14.3411C14.7665 14.8017 14.9497 15.2009 15.2245 15.4773C14.1862 17.5349 12.598 19.0396 10.2158 20.2986C8.59715 21.1585 6.91744 21.4656 5.23772 21.2507C3.86334 21.0664 2.79441 20.4523 2.12241 19.4388C1.14516 17.9341 1.05356 16.3064 1.87819 14.6789C2.4585 13.5119 3.37462 12.6521 3.95494 12.2221C3.83278 11.8229 3.6495 11.1474 3.55791 10.6561C-0.870564 13.8805 -0.412407 18.2412 0.931405 20.2986C1.93922 21.8342 3.9855 22.7861 6.24553 22.7861C6.85631 22.7861 7.46709 22.7247 8.07797 22.5712C11.9872 21.8034 14.9497 19.4695 16.6295 15.9994ZM22.0047 12.1915C19.6836 9.45837 16.263 7.95366 12.3537 7.95366H11.8651C11.5902 7.40091 11.0099 7.03234 10.3686 7.03234H10.3074C9.36075 7.06307 8.62781 7.86148 8.65828 8.81352C8.68884 9.73475 9.45234 10.4718 10.3686 10.4718H10.4296C11.1015 10.4411 11.6818 10.0111 11.9261 9.42764H12.4759C14.797 9.42764 16.9959 10.1032 18.9812 11.4237C20.5082 12.4372 21.6077 13.7577 22.2185 15.3545C22.7377 16.6443 22.7071 17.9033 22.1573 18.9782C21.3022 20.6057 19.8668 21.4963 17.9733 21.4963C16.7516 21.4963 15.5911 21.1278 14.9802 20.8514C14.6443 21.1585 14.0334 21.6498 13.6058 21.957C14.9192 22.5711 16.263 22.9089 17.5457 22.9089C20.4776 22.9089 22.6461 21.2813 23.4707 19.6538C24.3563 17.8726 24.2952 14.8017 22.0047 12.1915ZM6.48984 16.5214C6.5204 17.4427 7.28391 18.1796 8.20012 18.1796H8.26125C9.20803 18.149 9.94097 17.3505 9.9104 16.3985C9.87994 15.4772 9.11634 14.7403 8.20012 14.7403H8.13909C8.07797 14.7403 7.98628 14.7403 7.92534 14.7709C6.67312 12.6827 6.15394 10.4103 6.33722 7.95357C6.45928 6.11102 7.07016 4.51413 8.13909 3.19361C9.02475 2.05737 10.735 1.50461 11.8957 1.47398C15.1329 1.41252 16.5072 5.46608 16.5989 7.09371C16.9959 7.1858 17.6678 7.40082 18.126 7.55437C17.7594 2.57958 14.7053 0 11.7735 0C9.02475 0 6.48984 1.9961 5.48194 4.94415C4.07709 8.87489 4.99331 12.6521 6.70359 15.6309C6.55097 15.8458 6.45928 16.1836 6.48984 16.5214V16.5214Z" fill="#764ABC"/>
</g>
<defs>
<clipPath id="clip0">
<rect width="24" height="23" fill="white"/>
</clipPath>
</defs>
</svg>
