<svg width="64" height="77" viewBox="0 0 64 77" fill="none" xmlns="http://www.w3.org/2000/svg">
<g clip-path="url(#clip0)">
<path d="M59.9205 10.1767C52.7782 -0.0455971 38.6725 -3.07535 28.4737 3.4224L10.5617 14.8389C8.14201 16.3612 6.06653 18.3716 4.46797 20.7416C2.8694 23.1116 1.78292 25.7891 1.27798 28.6029C0.423486 33.3427 1.17445 38.232 3.41198 42.4969C1.87874 44.8227 0.833006 47.4353 0.337979 50.1767C-0.172263 53.0471 -0.104188 55.9906 0.538211 58.8344C1.18061 61.6783 2.3844 64.3652 4.07898 66.7376C11.2225 76.9609 25.3282 79.9894 35.5257 73.4917L53.4377 62.0756C55.8576 60.5535 57.9333 58.5431 59.5318 56.173C61.1304 53.8029 62.2168 51.1253 62.7215 48.3114C63.5758 43.5717 62.8254 38.6825 60.589 34.4172C62.1218 32.0913 63.167 29.4789 63.6615 26.7377C64.1721 23.8672 64.1042 20.9236 63.4618 18.0798C62.8195 15.2359 61.6156 12.549 59.9207 10.1767" fill="#FF3E00"/>
<path d="M26.7221 67.7103C20.9466 69.212 14.8478 66.9513 11.4463 62.0483C10.4268 60.6212 9.70248 59.0048 9.31598 57.2941C8.92948 55.5833 8.88855 53.8126 9.19558 52.0858C9.29957 51.5188 9.44266 50.9597 9.62383 50.4125L9.96133 49.3838L10.8791 50.058C12.9991 51.6157 15.3695 52.7999 17.8881 53.5598L18.5538 53.7618L18.4926 54.4265C18.4112 55.372 18.6671 56.3157 19.2151 57.0905C19.7148 57.8116 20.4238 58.3619 21.2463 58.6672C22.0688 58.9724 22.9652 59.0179 23.8143 58.7975C24.2038 58.6934 24.575 58.5303 24.9151 58.3138L42.8326 46.8958C43.271 46.6197 43.6471 46.2554 43.937 45.8259C44.2268 45.3965 44.4241 44.9114 44.5161 44.4015C44.608 43.881 44.5954 43.3475 44.479 42.8319C44.3625 42.3164 44.1446 41.8292 43.8378 41.3988C43.3378 40.6775 42.6285 40.1271 41.8058 39.8216C40.983 39.5162 40.0864 39.4705 39.2368 39.6908C38.848 39.7948 38.4774 39.9578 38.1378 40.174L31.3003 44.5325C30.1761 45.2474 28.9492 45.7862 27.6621 46.1303C21.8868 47.632 15.7878 45.3713 12.3868 40.468C11.3672 39.041 10.6429 37.4247 10.2563 35.714C9.86977 34.0032 9.82881 32.2325 10.1358 30.5058C10.4395 28.8132 11.0931 27.2027 12.0548 25.7772C13.0165 24.3517 14.2651 23.1426 15.7208 22.2273L33.6368 10.808C34.7616 10.0921 35.9894 9.55263 37.2776 9.20851C43.0528 7.70676 49.1518 9.96751 52.5528 14.8705C53.5724 16.2976 54.2968 17.9139 54.6833 19.6247C55.0699 21.3355 55.1108 23.1062 54.8038 24.833C54.6994 25.3998 54.5563 25.9588 54.3756 26.506L54.0381 27.535L53.1206 26.8618C51.0008 25.3032 48.6303 24.1184 46.1113 23.3585L45.4453 23.1563L45.5068 22.4918C45.5875 21.5464 45.3317 20.6028 44.7843 19.8278C44.2846 19.1066 43.5755 18.5563 42.753 18.251C41.9305 17.9458 41.034 17.9003 40.1848 18.1208C39.7954 18.2249 39.4243 18.388 39.0843 18.6045L21.1668 30.023C20.7284 30.2988 20.3523 30.6631 20.0626 31.0925C19.7729 31.5219 19.576 32.0069 19.4843 32.5168C19.3919 33.0372 19.4042 33.5708 19.5205 34.0865C19.6367 34.6021 19.8547 35.0894 20.1616 35.5198C20.6616 36.241 21.3709 36.7915 22.1936 37.0969C23.0164 37.4023 23.913 37.448 24.7626 37.2278C25.1519 37.1235 25.523 36.9603 25.8631 36.744L32.6993 32.3873C33.8231 31.6714 35.0501 31.132 36.3373 30.788C42.1126 29.2865 48.2116 31.5473 51.6128 36.4505C52.6324 37.8775 53.3567 39.4938 53.7432 41.2045C54.1297 42.9151 54.1706 44.6858 53.8636 46.4125C53.5597 48.1052 52.9061 49.7159 51.9444 51.1416C50.9827 52.5673 49.7342 53.7767 48.2786 54.6925L30.3626 66.1108C29.2378 66.8267 28.01 67.3661 26.7218 67.7103" fill="white"/>
</g>
<defs>
<clipPath id="clip0">
<rect width="64" height="77" fill="white"/>
</clipPath>
</defs>
</svg>
