<svg width="128" height="77" viewBox="0 0 128 77" fill="none" xmlns="http://www.w3.org/2000/svg">
<path d="M64 0C46.9335 0 36.2665 8.5335 32 25.6C38.4 17.0665 45.8665 13.8665 54.4 16C59.2685 17.217 62.7485 20.7495 66.6005 24.659C72.8755 31.0285 80.1375 38.4 96 38.4C113.066 38.4 123.734 29.8665 128 12.8C121.6 21.3335 114.133 24.5335 105.6 22.4C100.731 21.183 97.2515 17.6505 93.3995 13.741C87.1245 7.3715 79.8625 0 64 0ZM32 38.4C14.9335 38.4 4.2665 46.9335 0 64C6.4 55.4665 13.8665 52.2665 22.4 54.4C27.2685 55.617 30.7485 59.1495 34.6005 63.059C40.8755 69.4285 48.1375 76.8 64 76.8C81.0665 76.8 91.7335 68.2665 96 51.2C89.6 59.7335 82.1335 62.9335 73.6 60.8C68.7315 59.583 65.2515 56.0505 61.3995 52.141C55.1245 45.7715 47.8625 38.4 32 38.4Z" fill="url(#paint0_linear)"/>
<defs>
<linearGradient id="paint0_linear" x1="-3.55584" y1="24.576" x2="106.993" y2="88.3166" gradientUnits="userSpaceOnUse">
<stop stop-color="#2298BD"/>
<stop offset="1" stop-color="#0ED7B5"/>
</linearGradient>
</defs>
</svg>
