<svg width="16" height="16" viewBox="0 0 16 16" fill="none" xmlns="http://www.w3.org/2000/svg">
<path d="M14.344 1H1.656C1.2937 1 1 1.2937 1 1.656V14.344C1 14.7063 1.2937 15 1.656 15H14.344C14.7063 15 15 14.7063 15 14.344V1.656C15 1.2937 14.7063 1 14.344 1Z" fill="#3178C6"/>
<path fill-rule="evenodd" clip-rule="evenodd" d="M9.12225 11.8793V13.4133C9.40097 13.5509 9.698 13.6477 10.0043 13.7008C10.3581 13.7661 10.7174 13.7983 11.0772 13.7968C11.428 13.7985 11.7779 13.7631 12.1212 13.6913C12.4295 13.629 12.7236 13.5104 12.9887 13.3413C13.2349 13.1824 13.4378 12.9649 13.5792 12.7083C13.8326 12.177 13.866 11.5671 13.6722 11.0113C13.5905 10.8034 13.4687 10.6137 13.3137 10.4528C13.1474 10.2817 12.9585 10.1342 12.7522 10.0143C12.5148 9.87522 12.268 9.7526 12.0137 9.64731C11.8137 9.56431 11.6337 9.48364 11.4737 9.40531C11.3316 9.33726 11.1956 9.25714 11.0672 9.16581C10.9667 9.09531 10.8794 9.00763 10.8092 8.9068C10.7487 8.81526 10.7171 8.70756 10.7187 8.5978C10.7174 8.49679 10.7456 8.39757 10.7997 8.31231C10.8586 8.22307 10.9371 8.14849 11.0292 8.0943C11.1419 8.02799 11.2644 7.98021 11.3922 7.95281C11.5492 7.91795 11.7095 7.90117 11.8702 7.90281C12.0054 7.90327 12.1404 7.91296 12.2742 7.93181C12.4188 7.95135 12.5618 7.98092 12.7022 8.02031C12.8451 8.0599 12.9848 8.11004 13.1202 8.1703C13.2517 8.22889 13.3774 8.29952 13.4957 8.38131V6.94981C13.2493 6.85657 12.9937 6.78953 12.7332 6.74981C12.4187 6.70404 12.1011 6.68247 11.7832 6.68531C11.4358 6.68343 11.0894 6.72288 10.7512 6.80281C10.4456 6.87264 10.155 6.99678 9.89325 7.16931C9.65009 7.33129 9.44931 7.54921 9.30775 7.8048C9.15773 8.08864 9.08351 8.40638 9.09225 8.72731C9.08117 9.1517 9.22096 9.56627 9.48675 9.89731C9.81284 10.2643 10.224 10.5457 10.6842 10.7168C10.8942 10.8035 11.0901 10.8883 11.2717 10.9713C11.4357 11.0442 11.5932 11.1307 11.7427 11.2298C11.8634 11.3083 11.9693 11.4073 12.0557 11.5223C12.1318 11.6266 12.1721 11.7527 12.1707 11.8818C12.1714 11.9785 12.1466 12.0737 12.0987 12.1578C12.0456 12.2481 11.9709 12.3239 11.8812 12.3783C11.7691 12.4467 11.6465 12.496 11.5182 12.5243C11.3512 12.5616 11.1804 12.5793 11.0092 12.5768C10.6734 12.5762 10.3402 12.517 10.0247 12.4018C9.69516 12.2829 9.38951 12.1059 9.12225 11.8793V11.8793ZM6.54525 8.06031H8.54525V6.79681H2.96875V8.06031H4.95975V13.6873H6.54525V8.06031Z" fill="white"/>
</svg>
