<svg width="16" height="16" viewBox="0 0 16 16" fill="none" xmlns="http://www.w3.org/2000/svg">
<g clip-path="url(#clip0)">
<path d="M15.6982 7.28735L8.7125 0.301978C8.31044 -0.100334 7.65794 -0.100334 7.25537 0.301978L5.80475 1.7526L7.64494 3.59279C8.07256 3.44829 8.56294 3.54523 8.90381 3.8861C9.24631 4.22917 9.34256 4.72373 9.19456 5.15273L10.968 6.92623C11.3971 6.77842 11.8921 6.87404 12.2348 7.21729C12.7137 7.69604 12.7137 8.47198 12.2348 8.95104C11.7558 9.43017 10.9798 9.43017 10.5005 8.95104C10.1402 8.59042 10.0513 8.06135 10.2336 7.61754L8.57975 5.96367L8.57956 10.316C8.69945 10.3753 8.80896 10.4536 8.90381 10.5479C9.38275 11.0266 9.38275 11.8026 8.90381 12.282C8.42475 12.7609 7.64844 12.7609 7.17006 12.282C6.69112 11.8026 6.69112 11.0267 7.17006 10.5479C7.28484 10.4331 7.42124 10.3421 7.57137 10.2804V5.88748C7.42102 5.8261 7.28454 5.73511 7.17006 5.61992C6.80719 5.25754 6.71994 4.7251 6.90588 4.27954L5.09188 2.46535L0.301875 7.25504C-0.100625 7.65773 -0.100625 8.31029 0.301875 8.71267L7.28775 15.6982C7.68994 16.1005 8.34231 16.1005 8.745 15.6982L15.6982 8.7451C16.1006 8.3426 16.1006 7.68967 15.6982 7.28735" fill="#DE4C36"/>
</g>
<defs>
<clipPath id="clip0">
<rect width="16" height="16" fill="white"/>
</clipPath>
</defs>
</svg>
