<svg width="16" height="16" viewBox="0 0 16 16" fill="none" xmlns="http://www.w3.org/2000/svg">
<g clip-path="url(#clip0)">
<path d="M13.2655 12.7995L10.4015 8L13.2655 3.2005L14.667 8L13.2655 12.7995ZM6.932 12.3335L3.3335 8.7995H9.068L11.932 13.599L6.932 12.3335ZM6.932 3.5985L11.932 2.333L9.068 7.1325H3.2655C3.2655 7.2005 6.932 3.5985 6.932 3.5985ZM14.2655 0L7.735 1.6665L6.735 3.333H4.7995L0 7.9995L4.7995 12.666H6.735L7.667 14.3325L14.201 15.999L15.9325 9.6655L15.0005 7.999L16.0005 6.3325L14.2655 0Z" fill="black"/>
</g>
<defs>
<clipPath id="clip0">
<rect width="16" height="16" fill="white"/>
</clipPath>
</defs>
</svg>
