<svg width="16" height="16" viewBox="0 0 16 16" fill="none" xmlns="http://www.w3.org/2000/svg">
<path d="M14.5053 2.51496L11.6223 1.12696C11.4594 1.04846 11.2762 1.02256 11.0981 1.05284C10.9199 1.08312 10.7555 1.16809 10.6278 1.29596L1.19026 9.89996C1.07575 10.0039 1.00721 10.149 0.999711 10.3034C0.992209 10.4579 1.04636 10.609 1.15026 10.7235C1.16276 10.737 1.17526 10.75 1.18876 10.762L1.95926 11.462C2.05994 11.5536 2.18954 11.6071 2.32554 11.6131C2.46154 11.6191 2.59536 11.5773 2.70376 11.495L14.0713 2.87496C14.1571 2.80981 14.2595 2.76991 14.3668 2.75977C14.4741 2.74963 14.5821 2.76964 14.6786 2.81755C14.7752 2.86546 14.8564 2.93937 14.9133 3.03096C14.9701 3.12255 15.0002 3.22818 15.0003 3.33596V3.30246C15.0002 3.13791 14.9538 2.97671 14.8662 2.8374C14.7787 2.69808 14.6535 2.58632 14.5053 2.51496Z" fill="#0065A9"/>
<path d="M14.5053 13.4851L11.6223 14.8736C11.4594 14.9519 11.2763 14.9776 11.0981 14.9474C10.92 14.9171 10.7556 14.8323 10.6278 14.7046L1.19026 6.10007C1.07575 5.99617 1.00721 5.85104 0.999711 5.69661C0.992209 5.54217 1.04636 5.39108 1.15026 5.27657C1.16276 5.26307 1.17526 5.25007 1.18876 5.23807L1.95926 4.53807C2.06004 4.44605 2.18994 4.39234 2.32628 4.38631C2.46261 4.38028 2.59674 4.42231 2.70526 4.50507L14.0713 13.1251C14.1571 13.1902 14.2595 13.2301 14.3668 13.2403C14.4741 13.2504 14.5821 13.2304 14.6786 13.1825C14.7752 13.1346 14.8564 13.0607 14.9133 12.9691C14.9701 12.8775 15.0002 12.7719 15.0003 12.6641V12.7001C14.9997 12.8642 14.953 13.0248 14.8655 13.1637C14.7779 13.3025 14.6531 13.4139 14.5053 13.4851Z" fill="#007ACC"/>
<path d="M11.6225 14.8736C11.4596 14.9519 11.2765 14.9777 11.0983 14.9474C10.9202 14.9171 10.7558 14.8323 10.628 14.7046C10.6998 14.7755 10.7909 14.8236 10.8899 14.8429C10.9889 14.8622 11.0915 14.8518 11.1846 14.8131C11.2778 14.7744 11.3574 14.7091 11.4136 14.6253C11.4698 14.5415 11.5 14.443 11.5005 14.3421V1.65809C11.5006 1.55674 11.4706 1.45764 11.4143 1.37335C11.358 1.28905 11.278 1.22336 11.1843 1.1846C11.0907 1.14583 10.9876 1.13573 10.8882 1.15558C10.7888 1.17543 10.6976 1.22433 10.626 1.29609C10.7537 1.16826 10.9181 1.08329 11.0962 1.05292C11.2744 1.02256 11.4576 1.0483 11.6205 1.12659L14.503 2.51259C14.6517 2.58359 14.7774 2.6952 14.8654 2.83454C14.9534 2.97388 15.0002 3.13528 15.0005 3.30009V12.7001C15.0005 12.8648 14.954 13.0261 14.8664 13.1655C14.7787 13.305 14.6534 13.4168 14.505 13.4881L11.6225 14.8736Z" fill="#1F9CF0"/>
</svg>
