<svg width="17" height="22" viewBox="0 0 17 22" fill="none" xmlns="http://www.w3.org/2000/svg">
<path d="M7.62237 0H11.1604V16.4791C9.34814 16.8275 8.01404 16.9646 6.57057 16.9646C2.24938 16.96 0 14.9981 0 11.2303C0 7.59992 2.38598 5.24383 6.08334 5.24383C6.65709 5.24383 7.09418 5.28972 7.62237 5.42718V0ZM7.74636 8.39691C7.33198 8.25938 6.99052 8.21356 6.55337 8.21356C4.76392 8.21356 3.7303 9.3228 3.7303 11.2668C3.7303 13.1594 4.71843 14.2045 6.53066 14.2045C6.92219 14.2045 7.24094 14.1821 7.74636 14.1133V8.39691Z" fill="#2BA977"/>
<path d="M16.9458 5.68628V13.9372C16.9458 16.7786 16.7364 18.145 16.1217 19.3231C15.5479 20.4557 14.7921 21.1699 13.2303 21.9587L9.94727 20.3865C11.5091 19.6489 12.2649 18.9972 12.7476 18.0025C13.253 16.9854 13.4123 15.8073 13.4123 12.7087V5.68635H16.9458V5.68628Z" fill="#2BA977"/>
<path d="M13.0566 0H16.5946V3.65328H13.0566V0Z" fill="#2BA977"/>
</svg>
