<svg width="14" height="16" viewBox="0 0 14 16" fill="none" xmlns="http://www.w3.org/2000/svg">
<path d="M6.99961 15.8749C6.79023 15.8749 6.57773 15.8187 6.39336 15.7124L4.46523 14.5718C4.17773 14.4093 4.31836 14.353 4.41211 14.3218C4.79648 14.1874 4.87461 14.1593 5.28398 13.9249C5.32773 13.8999 5.38398 13.9093 5.42773 13.9374L6.90898 14.8155C6.96211 14.8468 7.03711 14.8468 7.08711 14.8155L12.859 11.4843C12.9121 11.453 12.9465 11.3905 12.9465 11.328V4.66553C12.9465 4.5999 12.9121 4.54053 12.8559 4.50615L7.08711 1.17803C7.03398 1.14678 6.96211 1.14678 6.90898 1.17803L1.14336 4.50928C1.08711 4.54053 1.05273 4.60303 1.05273 4.66865V11.328C1.05273 11.3905 1.08711 11.453 1.14336 11.4812L2.72461 12.3937C3.58398 12.8218 4.10898 12.3187 4.10898 11.8093V5.23428C4.10898 5.14053 4.18398 5.06865 4.27773 5.06865H5.00898C5.09961 5.06865 5.17773 5.14053 5.17773 5.23428V11.8124C5.17773 12.9562 4.55273 13.6124 3.46836 13.6124C3.13398 13.6124 2.87148 13.6124 2.14023 13.2499L0.627734 12.378C0.252734 12.1624 0.0214844 11.7593 0.0214844 11.3249V4.66553C0.0214844 4.23428 0.252734 3.82803 0.627734 3.6124L6.39336 0.281152C6.75898 0.0749023 7.24336 0.0749023 7.60586 0.281152L13.3777 3.61553C13.7527 3.83115 13.984 4.23428 13.984 4.66865V11.328C13.984 11.7593 13.7527 12.1624 13.3777 12.3812L7.60586 15.7124C7.42148 15.8187 7.21211 15.8749 6.99961 15.8749ZM11.659 9.30928C11.659 8.0624 10.8152 7.73115 9.04336 7.49678C7.24961 7.25928 7.06836 7.1374 7.06836 6.71865C7.06836 6.37178 7.22148 5.90928 8.54961 5.90928C9.73398 5.90928 10.1715 6.16553 10.3527 6.96553C10.3684 7.04053 10.4371 7.09678 10.5152 7.09678H11.2652C11.3121 7.09678 11.3559 7.07803 11.3871 7.04365C11.4184 7.00928 11.434 6.9624 11.4309 6.91553C11.3152 5.5374 10.3996 4.89678 8.54961 4.89678C6.90273 4.89678 5.92148 5.59053 5.92148 6.75615C5.92148 8.01865 6.89961 8.36865 8.47773 8.5249C10.3684 8.70928 10.5152 8.9874 10.5152 9.35928C10.5152 10.003 9.99648 10.278 8.78086 10.278C7.25273 10.278 6.91836 9.89365 6.80586 9.13428C6.79336 9.05303 6.72461 8.99365 6.64023 8.99365H5.89336C5.79961 8.99365 5.72773 9.06865 5.72773 9.15928C5.72773 10.1312 6.25586 11.2905 8.78398 11.2905C10.609 11.2874 11.659 10.5655 11.659 9.30928Z" fill="#43853D"/>
</svg>
