<svg aria-hidden="true" style="position: absolute; width: 0; height: 0; overflow: hidden;" version="1.1" xmlns="http://www.w3.org/2000/svg" xmlns:xlink="http://www.w3.org/1999/xlink">
<defs>

<!-- PALETTE ICON -->
<svg id="icon-palette" viewBox="0 0 29 29" xmlns="http://www.w3.org/2000/svg">
<path d="M16.5289 0.135042C14.138 -0.192253 11.7034 0.0775994 9.44223 0.920511C7.18107 1.76342 5.16376 3.15316 3.57036 4.96569C2.20666 6.53653 1.19483 8.38105 0.60286 10.3754C0.010887 12.3697 -0.147529 14.4676 0.138253 16.5282C0.906744 22.1753 5.1523 26.9799 10.7014 28.4866C11.9384 28.8252 13.2149 28.9978 14.4974 29L14.7033 28.9986C15.4364 28.9891 16.1551 28.7946 16.7929 28.4331C17.4307 28.0715 17.9668 27.5547 18.3515 26.9306C18.7375 26.3098 18.9602 25.6015 18.999 24.8715C19.0378 24.1415 18.8914 23.4136 18.5733 22.7554L18.2848 22.1521C18.0629 21.7184 17.9586 21.2341 17.9826 20.7475C18.0065 20.2609 18.1577 19.7891 18.4211 19.3793C18.798 18.767 19.3884 18.3162 20.0783 18.114C20.7682 17.9117 21.5085 17.9725 22.1563 18.2844L22.7536 18.5701C23.351 18.8572 23.9861 19.0037 24.6401 19.0037C25.7845 18.9978 26.8812 18.5444 27.6957 17.7403C28.5103 16.9363 28.9779 15.8454 28.9987 14.7009C29.0167 13.3493 28.8444 12.0019 28.4869 10.6984C26.9789 5.14987 22.1751 0.903653 16.5289 0.135042V0.135042ZM24.0079 15.9554L23.4105 15.6697C20.7599 14.3964 17.5091 15.3825 15.9648 17.8363C14.8947 19.5417 14.786 21.572 15.669 23.408L15.9576 24.0113C16.0657 24.2304 16.1157 24.4737 16.1028 24.7178C16.0898 24.9618 16.0144 25.1985 15.8836 25.4049C15.7562 25.6159 15.5768 25.7905 15.3625 25.9121C15.1482 26.0338 14.9062 26.0983 14.6598 26.0996H14.4974C13.4712 26.0967 12.4499 25.9588 11.4597 25.6892C7.01843 24.484 3.62546 20.6439 3.01212 16.1381C2.54668 12.7229 3.52252 9.43378 5.75694 6.87271C7.02819 5.41413 8.64393 4.29663 10.4571 3.62189C12.2704 2.94715 14.2235 2.73659 16.1388 3.00936C20.6439 3.62279 24.4835 7.01773 25.6884 11.4583C25.9755 12.5169 26.1133 13.5959 26.0973 14.6589C26.0799 15.8292 24.8721 16.3745 24.0079 15.9554V15.9554Z" />
<path d="M8 20C9.10457 20 10 19.1046 10 18C10 16.8954 9.10457 16 8 16C6.89543 16 6 16.8954 6 18C6 19.1046 6.89543 20 8 20Z" />
<path d="M8 14C9.10457 14 10 13.1046 10 12C10 10.8954 9.10457 10 8 10C6.89543 10 6 10.8954 6 12C6 13.1046 6.89543 14 8 14Z" />
<path d="M12 10C13.1046 10 14 9.10457 14 8C14 6.89543 13.1046 6 12 6C10.8954 6 10 6.89543 10 8C10 9.10457 10.8954 10 12 10Z" />
<path d="M18 10C19.1046 10 20 9.10457 20 8C20 6.89543 19.1046 6 18 6C16.8954 6 16 6.89543 16 8C16 9.10457 16.8954 10 18 10Z" />
</svg>

<!-- GITHUB ICON -->
<svg id="icon-github" viewBox="0 0 23 23" xmlns="http://www.w3.org/2000/svg">
<path d="M11.491 1.71387C5.93643 1.71162 1.4375 6.2083 1.4375 11.7584C1.4375 16.1473 4.25186 19.878 8.17129 21.2481C8.69912 21.3807 8.61826 21.0056 8.61826 20.7495V19.0088C5.57031 19.3659 5.44678 17.3489 5.24238 17.012C4.8291 16.3067 3.85205 16.1271 4.14404 15.7901C4.83809 15.433 5.54561 15.88 6.36543 17.0906C6.9584 17.9688 8.11514 17.8206 8.70137 17.6746C8.82939 17.1468 9.10342 16.6751 9.48076 16.309C6.32275 15.743 5.00654 13.8158 5.00654 11.5248C5.00654 10.413 5.37266 9.39102 6.09141 8.5667C5.6332 7.20781 6.13408 6.04434 6.20147 5.87139C7.50645 5.75459 8.86309 6.80576 8.96865 6.88887C9.70986 6.68897 10.5566 6.5834 11.5045 6.5834C12.4568 6.5834 13.3059 6.69346 14.0538 6.89561C14.3076 6.70244 15.5654 5.79951 16.7783 5.90957C16.8435 6.08252 17.3331 7.21904 16.9019 8.55996C17.6296 9.38652 18.0002 10.4175 18.0002 11.5315C18.0002 13.8271 16.675 15.7564 13.508 16.3135C13.7793 16.5802 13.9947 16.8984 14.1416 17.2493C14.2885 17.6003 14.364 17.977 14.3638 18.3574V20.8843C14.3817 21.0864 14.3638 21.2863 14.7007 21.2863C18.6785 19.9454 21.5423 16.1877 21.5423 11.7606C21.5423 6.2083 17.0411 1.71387 11.491 1.71387Z"/>
</svg>

<!-- GMAIL ICON -->
<svg id="icon-gmail" viewBox="0 0 22 22" xmlns="http://www.w3.org/2000/svg">
<path d="M18.2 17.125H16.4V8.92188L11 12.4375L5.6 8.92188V17.125H3.8V5.875H4.88L11 9.85938L17.12 5.875H18.2V17.125ZM18.2 4H3.8C2.801 4 2 4.83437 2 5.875V17.125C2 17.6223 2.18964 18.0992 2.52721 18.4508C2.86477 18.8025 3.32261 19 3.8 19H18.2C18.6774 19 19.1352 18.8025 19.4728 18.4508C19.8104 18.0992 20 17.6223 20 17.125V5.875C20 5.37772 19.8104 4.90081 19.4728 4.54917C19.1352 4.19754 18.6774 4 18.2 4Z" />
</svg>

<!-- LINKEDIN ICON -->
<svg id="icon-linkedin" viewBox="0 -4 15 24" xmlns="http://www.w3.org/2000/svg">
   <path d="M3.63307 14.9995V4.87904H0.20333V14.9995H3.63307ZM1.91865 3.49643C3.11466 3.49643 3.85912 2.7193 3.85912 1.74814C3.83683 0.755077 3.1147 -0.000488281 1.94134 -0.000488281C0.768163 -0.000488281 0.000976562 0.755092 0.000976562 1.74814C0.000976562 2.71934 0.745253 3.49643 1.89626 3.49643H1.91854H1.91865ZM5.53143 14.9995H8.96117V9.34775C8.96117 9.04528 8.98345 8.74312 9.07403 8.52689C9.32197 7.92256 9.8863 7.29664 10.8337 7.29664C12.0748 7.29664 12.5713 8.22472 12.5713 9.58522V14.9995H16.0009V9.19646C16.0009 6.08785 14.3088 4.64144 12.0522 4.64144C10.202 4.64144 9.38966 5.65577 8.93835 6.34663H8.96125V4.87883H5.5315C5.57651 5.82848 5.5315 14.9993 5.5315 14.9993L5.53143 14.9995Z" />
</svg>

<!-- EXTERNAL ICON -->
<svg id="icon-external" viewBox="0 0 13 13" xmlns="http://www.w3.org/2000/svg">
<path d="M7.58333 2.70833C7.43967 2.70833 7.3019 2.65127 7.20032 2.54968C7.09874 2.4481 7.04167 2.31033 7.04167 2.16667C7.04167 2.02301 7.09874 1.88523 7.20032 1.78365C7.3019 1.68207 7.43967 1.625 7.58333 1.625H10.8333C10.977 1.625 11.1148 1.68207 11.2164 1.78365C11.3179 1.88523 11.375 2.02301 11.375 2.16667V5.41667C11.375 5.56033 11.3179 5.6981 11.2164 5.79968C11.1148 5.90127 10.977 5.95833 10.8333 5.95833C10.6897 5.95833 10.5519 5.90127 10.4503 5.79968C10.3487 5.6981 10.2917 5.56033 10.2917 5.41667V3.47425L5.25796 8.50796C5.1558 8.60663 5.01897 8.66122 4.87695 8.65999C4.73493 8.65876 4.59907 8.60179 4.49864 8.50136C4.39821 8.40093 4.34124 8.26507 4.34001 8.12305C4.33878 7.98103 4.39337 7.8442 4.49204 7.74204L9.52575 2.70833H7.58333ZM1.625 3.79167C1.625 3.50435 1.73914 3.2288 1.9423 3.02563C2.14547 2.82247 2.42102 2.70833 2.70833 2.70833H5.41667C5.56033 2.70833 5.6981 2.7654 5.79968 2.86698C5.90127 2.96857 5.95833 3.10634 5.95833 3.25C5.95833 3.39366 5.90127 3.53143 5.79968 3.63302C5.6981 3.7346 5.56033 3.79167 5.41667 3.79167H2.70833V10.2917H9.20833V7.58333C9.20833 7.43967 9.2654 7.3019 9.36698 7.20032C9.46857 7.09874 9.60634 7.04167 9.75 7.04167C9.89366 7.04167 10.0314 7.09874 10.133 7.20032C10.2346 7.3019 10.2917 7.43967 10.2917 7.58333V10.2917C10.2917 10.579 10.1775 10.8545 9.97437 11.0577C9.7712 11.2609 9.49565 11.375 9.20833 11.375H2.70833C2.42102 11.375 2.14547 11.2609 1.9423 11.0577C1.73914 10.8545 1.625 10.579 1.625 10.2917V3.79167Z" fill="white"/>
</svg>

</defs>
</svg>
