<svg aria-hidden="true" style="position: absolute; width: 0; height: 0; overflow: hidden;" version="1.1" xmlns="http://www.w3.org/2000/svg" xmlns:xlink="http://www.w3.org/1999/xlink">
<defs>

<!-- PALETTE ICON -->
<svg id="icon-palette" viewBox="0 0 29 29" xmlns="http://www.w3.org/2000/svg">
<path d="M16.5289 0.135042C14.138 -0.192253 11.7034 0.0775994 9.44223 0.920511C7.18107 1.76342 5.16376 3.15316 3.57036 4.96569C2.20666 6.53653 1.19483 8.38105 0.60286 10.3754C0.010887 12.3697 -0.147529 14.4676 0.138253 16.5282C0.906744 22.1753 5.1523 26.9799 10.7014 28.4866C11.9384 28.8252 13.2149 28.9978 14.4974 29L14.7033 28.9986C15.4364 28.9891 16.1551 28.7946 16.7929 28.4331C17.4307 28.0715 17.9668 27.5547 18.3515 26.9306C18.7375 26.3098 18.9602 25.6015 18.999 24.8715C19.0378 24.1415 18.8914 23.4136 18.5733 22.7554L18.2848 22.1521C18.0629 21.7184 17.9586 21.2341 17.9826 20.7475C18.0065 20.2609 18.1577 19.7891 18.4211 19.3793C18.798 18.767 19.3884 18.3162 20.0783 18.114C20.7682 17.9117 21.5085 17.9725 22.1563 18.2844L22.7536 18.5701C23.351 18.8572 23.9861 19.0037 24.6401 19.0037C25.7845 18.9978 26.8812 18.5444 27.6957 17.7403C28.5103 16.9363 28.9779 15.8454 28.9987 14.7009C29.0167 13.3493 28.8444 12.0019 28.4869 10.6984C26.9789 5.14987 22.1751 0.903653 16.5289 0.135042V0.135042ZM24.0079 15.9554L23.4105 15.6697C20.7599 14.3964 17.5091 15.3825 15.9648 17.8363C14.8947 19.5417 14.786 21.572 15.669 23.408L15.9576 24.0113C16.0657 24.2304 16.1157 24.4737 16.1028 24.7178C16.0898 24.9618 16.0144 25.1985 15.8836 25.4049C15.7562 25.6159 15.5768 25.7905 15.3625 25.9121C15.1482 26.0338 14.9062 26.0983 14.6598 26.0996H14.4974C13.4712 26.0967 12.4499 25.9588 11.4597 25.6892C7.01843 24.484 3.62546 20.6439 3.01212 16.1381C2.54668 12.7229 3.52252 9.43378 5.75694 6.87271C7.02819 5.41413 8.64393 4.29663 10.4571 3.62189C12.2704 2.94715 14.2235 2.73659 16.1388 3.00936C20.6439 3.62279 24.4835 7.01773 25.6884 11.4583C25.9755 12.5169 26.1133 13.5959 26.0973 14.6589C26.0799 15.8292 24.8721 16.3745 24.0079 15.9554V15.9554Z" />
<path d="M8 20C9.10457 20 10 19.1046 10 18C10 16.8954 9.10457 16 8 16C6.89543 16 6 16.8954 6 18C6 19.1046 6.89543 20 8 20Z" />
<path d="M8 14C9.10457 14 10 13.1046 10 12C10 10.8954 9.10457 10 8 10C6.89543 10 6 10.8954 6 12C6 13.1046 6.89543 14 8 14Z" />
<path d="M12 10C13.1046 10 14 9.10457 14 8C14 6.89543 13.1046 6 12 6C10.8954 6 10 6.89543 10 8C10 9.10457 10.8954 10 12 10Z" />
<path d="M18 10C19.1046 10 20 9.10457 20 8C20 6.89543 19.1046 6 18 6C16.8954 6 16 6.89543 16 8C16 9.10457 16.8954 10 18 10Z" />
</svg>


<!-- HEXAGON -->
<svg id="hexagon" viewBox="0 0 16 14" xmlns="http://www.w3.org/2000/svg">
<path d="M1.06695 7.52875C1.02309 7.45273 1 7.36651 1 7.27875C1 7.19099 1.02309 7.10477 1.06695 7.02875L4.40345 1.25C4.4927 1.09525 4.6577 1 4.83645 1H11.5089C11.6877 1 11.8527 1.09525 11.9419 1.25L15.2784 7.02875C15.3223 7.10477 15.3454 7.19099 15.3454 7.27875C15.3454 7.36651 15.3223 7.45273 15.2784 7.52875L11.9419 13.3075C11.8527 13.4623 11.6877 13.5575 11.5089 13.5575H4.83645C4.74868 13.5575 4.66245 13.5344 4.58644 13.4905C4.51042 13.4467 4.44731 13.3835 4.40345 13.3075L1.06695 7.52875Z" />
</svg>

<!-- SCREENSHOT ICON -->
<svg id="icon-screenshot" viewBox="0 0 24 24" xmlns="http://www.w3.org/2000/svg">
   <path d="M9 6H5V10H7V8H9V6ZM19 10H17V12H15V14H19V10ZM21 16H3V4H21V16ZM21 2H3C1.89 2 1 2.89 1 4V16C1 16.5304 1.21071 17.0391 1.58579 17.4142C1.96086 17.7893 2.46957 18 3 18H10V20H8V22H16V20H14V18H21C21.5304 18 22.0391 17.7893 22.4142 17.4142C22.7893 17.0391 23 16.5304 23 16V4C23 3.46957 22.7893 2.96086 22.4142 2.58579C22.0391 2.21071 21.5304 2 21 2Z" />
</svg>

<!-- INFO ICON -->
<svg id="icon-info" viewBox="0 0 10 10" xmlns="http://www.w3.org/2000/svg">
   <path fill-rule="evenodd" clip-rule="evenodd" d="M5 10C6.32608 10 7.59785 9.47322 8.53553 8.53553C9.47322 7.59785 10 6.32608 10 5C10 3.67392 9.47322 2.40215 8.53553 1.46447C7.59785 0.526784 6.32608 0 5 0C3.67392 0 2.40215 0.526784 1.46447 1.46447C0.526784 2.40215 0 3.67392 0 5C0 6.32608 0.526784 7.59785 1.46447 8.53553C2.40215 9.47322 3.67392 10 5 10ZM5.58125 4.1175L4.15 4.29688L4.09875 4.53438L4.38 4.58625C4.56375 4.63 4.6 4.69625 4.56 4.87937L4.09875 7.04688C3.9775 7.6075 4.16438 7.87125 4.60375 7.87125C4.94438 7.87125 5.34 7.71375 5.51938 7.4975L5.57437 7.2375C5.44937 7.3475 5.26687 7.39125 5.14563 7.39125C4.97375 7.39125 4.91125 7.27063 4.95563 7.05813L5.58125 4.1175ZM5 3.4375C5.16576 3.4375 5.32473 3.37165 5.44194 3.25444C5.55915 3.13723 5.625 2.97826 5.625 2.8125C5.625 2.64674 5.55915 2.48777 5.44194 2.37056C5.32473 2.25335 5.16576 2.1875 5 2.1875C4.83424 2.1875 4.67527 2.25335 4.55806 2.37056C4.44085 2.48777 4.375 2.64674 4.375 2.8125C4.375 2.97826 4.44085 3.13723 4.55806 3.25444C4.67527 3.37165 4.83424 3.4375 5 3.4375Z" />
</svg>

<!-- CROSS ICON -->
<symbol id="icon-cross" viewBox="0 0 1024 1024">
<path d="M813.653333 802.986667a42.666667 42.666667 0 0 1-60.373333 0L512 561.706667 270.72 802.986667a42.666667 42.666667 0 1 1-60.373333-60.373334L451.626667 501.333333 210.346667 260.053333a42.666667 42.666667 0 0 1 30.293333-72.746666 42.666667 42.666667 0 0 1 30.08 12.373333L512 440.96 753.28 199.68a42.666667 42.666667 0 0 1 72.746667 30.293333 42.666667 42.666667 0 0 1-12.373334 30.08L572.373333 501.333333l241.28 241.28a42.666667 42.666667 0 0 1 0 60.373334z" />
</symbol>

<!-- OPEN ICON -->
<svg id="icon-open" viewBox="0 0 24 24" xmlns="http://www.w3.org/2000/svg">
<path d="M19 19H5V5H12V3H5C4.46957 3 3.96086 3.21071 3.58579 3.58579C3.21071 3.96086 3 4.46957 3 5V19C3 19.5304 3.21071 20.0391 3.58579 20.4142C3.96086 20.7893 4.46957 21 5 21H19C20.1 21 21 20.1 21 19V12H19V19ZM14 3V5H17.59L7.76 14.83L9.17 16.24L19 6.41V10H21V3H14Z" />
</svg>

<!-- GITHUB ICON -->
<svg id="icon-github" viewBox="0 0 23 23" xmlns="http://www.w3.org/2000/svg">
<path d="M11.491 1.71387C5.93643 1.71162 1.4375 6.2083 1.4375 11.7584C1.4375 16.1473 4.25186 19.878 8.17129 21.2481C8.69912 21.3807 8.61826 21.0056 8.61826 20.7495V19.0088C5.57031 19.3659 5.44678 17.3489 5.24238 17.012C4.8291 16.3067 3.85205 16.1271 4.14404 15.7901C4.83809 15.433 5.54561 15.88 6.36543 17.0906C6.9584 17.9688 8.11514 17.8206 8.70137 17.6746C8.82939 17.1468 9.10342 16.6751 9.48076 16.309C6.32275 15.743 5.00654 13.8158 5.00654 11.5248C5.00654 10.413 5.37266 9.39102 6.09141 8.5667C5.6332 7.20781 6.13408 6.04434 6.20147 5.87139C7.50645 5.75459 8.86309 6.80576 8.96865 6.88887C9.70986 6.68897 10.5566 6.5834 11.5045 6.5834C12.4568 6.5834 13.3059 6.69346 14.0538 6.89561C14.3076 6.70244 15.5654 5.79951 16.7783 5.90957C16.8435 6.08252 17.3331 7.21904 16.9019 8.55996C17.6296 9.38652 18.0002 10.4175 18.0002 11.5315C18.0002 13.8271 16.675 15.7564 13.508 16.3135C13.7793 16.5802 13.9947 16.8984 14.1416 17.2493C14.2885 17.6003 14.364 17.977 14.3638 18.3574V20.8843C14.3817 21.0864 14.3638 21.2863 14.7007 21.2863C18.6785 19.9454 21.5423 16.1877 21.5423 11.7606C21.5423 6.2083 17.0411 1.71387 11.491 1.71387Z"/>
</svg>

<!-- GMAIL ICON -->
<svg id="icon-gmail" viewBox="0 0 22 22" xmlns="http://www.w3.org/2000/svg">
<path d="M18.2 17.125H16.4V8.92188L11 12.4375L5.6 8.92188V17.125H3.8V5.875H4.88L11 9.85938L17.12 5.875H18.2V17.125ZM18.2 4H3.8C2.801 4 2 4.83437 2 5.875V17.125C2 17.6223 2.18964 18.0992 2.52721 18.4508C2.86477 18.8025 3.32261 19 3.8 19H18.2C18.6774 19 19.1352 18.8025 19.4728 18.4508C19.8104 18.0992 20 17.6223 20 17.125V5.875C20 5.37772 19.8104 4.90081 19.4728 4.54917C19.1352 4.19754 18.6774 4 18.2 4Z" />
</svg>

<!-- EMAIL ICON -->
<svg id="icon-email" viewBox="0 0 14 14" xmlns="http://www.w3.org/2000/svg">
<path d="M12.444 2.33325H1.55512C1.34884 2.33325 1.15101 2.4152 1.00515 2.56106C0.859288 2.70692 0.777344 2.90475 0.777344 3.11103V10.8888C0.777344 11.0951 0.859288 11.2929 1.00515 11.4388C1.15101 11.5846 1.34884 11.6666 1.55512 11.6666H12.444C12.6503 11.6666 12.8481 11.5846 12.994 11.4388C13.1398 11.2929 13.2218 11.0951 13.2218 10.8888V3.11103C13.2218 2.90475 13.1398 2.70692 12.994 2.56106C12.8481 2.4152 12.6503 2.33325 12.444 2.33325ZM11.8451 10.8888H2.20068L4.9229 8.07325L4.3629 7.5327L1.55512 10.4377V3.70214L6.38901 8.5127C6.53474 8.65756 6.73187 8.73887 6.93734 8.73887C7.14282 8.73887 7.33995 8.65756 7.48568 8.5127L12.444 3.58159V10.3871L9.58179 7.52492L9.03345 8.07325L11.8451 10.8888ZM2.06457 3.11103H11.814L6.93734 7.96047L2.06457 3.11103Z"/>
</svg>

<!-- LINKEDIN ICON -->
<svg id="icon-linkedin" viewBox="0 -4 15 24" xmlns="http://www.w3.org/2000/svg">
   <path d="M3.63307 14.9995V4.87904H0.20333V14.9995H3.63307ZM1.91865 3.49643C3.11466 3.49643 3.85912 2.7193 3.85912 1.74814C3.83683 0.755077 3.1147 -0.000488281 1.94134 -0.000488281C0.768163 -0.000488281 0.000976562 0.755092 0.000976562 1.74814C0.000976562 2.71934 0.745253 3.49643 1.89626 3.49643H1.91854H1.91865ZM5.53143 14.9995H8.96117V9.34775C8.96117 9.04528 8.98345 8.74312 9.07403 8.52689C9.32197 7.92256 9.8863 7.29664 10.8337 7.29664C12.0748 7.29664 12.5713 8.22472 12.5713 9.58522V14.9995H16.0009V9.19646C16.0009 6.08785 14.3088 4.64144 12.0522 4.64144C10.202 4.64144 9.38966 5.65577 8.93835 6.34663H8.96125V4.87883H5.5315C5.57651 5.82848 5.5315 14.9993 5.5315 14.9993L5.53143 14.9995Z" />
</svg>

<!-- CODE ICON -->
<svg id="icon-code" viewBox="0 0 24 24"  xmlns="http://www.w3.org/2000/svg">
<path d="M7.37547 16.781L8.62547 15.219L4.60147 12L8.62547 8.78099L7.37547 7.21899L2.37547 11.219C2.25831 11.3127 2.16374 11.4315 2.09874 11.5667C2.03375 11.7019 2 11.85 2 12C2 12.15 2.03375 12.2981 2.09874 12.4333C2.16374 12.5685 2.25831 12.6873 2.37547 12.781L7.37547 16.781ZM16.6255 7.21899L15.3755 8.78099L19.3995 12L15.3755 15.219L16.6255 16.781L21.6255 12.781C21.7426 12.6873 21.8372 12.5685 21.9022 12.4333C21.9672 12.2981 22.0009 12.15 22.0009 12C22.0009 11.85 21.9672 11.7019 21.9022 11.5667C21.8372 11.4315 21.7426 11.3127 21.6255 11.219L16.6255 7.21899Z" />
<path d="M14.9764 3.21598L10.9764 21.216L9.02344 20.782L13.0234 2.78198L14.9764 3.21598Z" />
</svg>

<!-- LIGHTBULB ICON -->
<svg id="icon-lightbulb" viewBox="0 0 24 24" xmlns="http://www.w3.org/2000/svg">
<path d="M9 21C9 21.55 9.45 22 10 22H14C14.55 22 15 21.55 15 21V20H9V21ZM12 2C8.14 2 5 5.14 5 9C5 11.38 6.19 13.47 8 14.74V17C8 17.55 8.45 18 9 18H15C15.55 18 16 17.55 16 17V14.74C17.81 13.47 19 11.38 19 9C19 5.14 15.86 2 12 2ZM14.85 13.1L14 13.7V16H10V13.7L9.15 13.1C8.48749 12.6407 7.94594 12.0279 7.57155 11.314C7.19717 10.6001 7.00107 9.80615 7 9C7 6.24 9.24 4 12 4C14.76 4 17 6.24 17 9C17 10.63 16.2 12.16 14.85 13.1Z" />
</svg>

<!-- BOOK ICON -->
<svg id="icon-book" viewBox="0 0 17 17" xmlns="http://www.w3.org/2000/svg">
<path d="M14.1429 2.75V14.125H5.14286C4.80186 14.125 4.47484 13.9867 4.23372 13.7406C3.9926 13.4944 3.85714 13.1606 3.85714 12.8125C3.85714 12.4644 3.9926 12.1306 4.23372 11.8844C4.47484 11.6383 4.80186 11.5 5.14286 11.5H13.2857V1H4.71429C3.77143 1 3 1.7875 3 2.75V13.25C3 14.2125 3.77143 15 4.71429 15H15V2.75H14.1429Z" />
<path d="M3.71981 13.8125H3.71875C3.57785 13.8125 3.44273 13.8685 3.3431 13.9681C3.24347 14.0677 3.1875 14.2029 3.1875 14.3438C3.1875 14.4846 3.24347 14.6198 3.3431 14.7194C3.44273 14.819 3.57785 14.875 3.71875 14.875H13.8114V13.8125H3.71981Z" />
</svg>

<!-- HEADPHONES ICON -->
<symbol id="icon-headphones" viewBox="0 0 32 32">
<path d="M9 18h-2v14h2c0.55 0 1-0.45 1-1v-12c0-0.55-0.45-1-1-1z" />
<path d="M23 18c-0.55 0-1 0.45-1 1v12c0 0.55 0.45 1 1 1h2v-14h-2z" />
<path d="M32 16c0-8.837-7.163-16-16-16s-16 7.163-16 16c0 1.919 0.338 3.759 0.958 5.464-0.609 1.038-0.958 2.246-0.958 3.536 0 3.526 2.608 6.443 6 6.929v-13.857c-0.997 0.143-1.927 0.495-2.742 1.012-0.168-0.835-0.258-1.699-0.258-2.584 0-7.18 5.82-13 13-13s13 5.82 13 13c0 0.885-0.088 1.749-0.257 2.584-0.816-0.517-1.745-0.87-2.743-1.013v13.858c3.392-0.485 6-3.402 6-6.929 0-1.29-0.349-2.498-0.958-3.536 0.62-1.705 0.958-3.545 0.958-5.465z" />
</symbol>

<!-- SPOTIFY ICON -->
<svg id="icon-spotify" viewBox="0 0 16 16" xmlns="http://www.w3.org/2000/svg">
<path d="M8 0C3.5985 0 0 3.5985 0 8C0 12.4015 3.5985 16 8 16C12.4015 16 16 12.4015 16 8C16 3.5985 12.44 0 8 0ZM11.68 11.56C11.5205 11.7995 11.2395 11.88 11 11.7185C9.12 10.56 6.7605 10.32 3.9585 10.9585C3.68 11.041 3.44 10.841 3.359 10.5985C3.281 10.32 3.479 10.0805 3.7185 10C6.7605 9.32 9.401 9.5985 11.479 10.88C11.7605 11 11.799 11.32 11.6795 11.56H11.68ZM12.6405 9.3595C12.44 9.641 12.0805 9.761 11.799 9.56C9.6405 8.2395 6.359 7.8415 3.841 8.6405C3.5205 8.7185 3.1585 8.56 3.0805 8.239C3 7.919 3.1585 7.5595 3.479 7.479C6.401 6.5985 9.9995 7.041 12.479 8.5595C12.721 8.6795 12.841 9.08 12.6405 9.359V9.3595ZM12.7215 7.12C10.159 5.5985 5.88 5.44 3.44 6.2005C3.0395 6.32 2.6405 6.0805 2.5205 5.7185C2.401 5.32 2.6405 4.919 3 4.799C5.8415 3.9585 10.5205 4.1195 13.482 5.8795C13.8415 6.08 13.9605 6.5595 13.7605 6.919C13.56 7.2005 13.0805 7.3195 12.721 7.1195L12.7215 7.12Z" />
</svg>

<!-- CONTROLLER ICON -->
<svg id="icon-controller" xmlns="http://www.w3.org/2000/svg" viewBox="0 0 53.626 53.626" style="enable-background:new 0 0 53.626 53.626;" xml:space="preserve">
	<path d="M48.831,15.334c-7.083-11.637-17.753-3.541-17.753-3.541c-0.692,0.523-1.968,0.953-2.835,0.955 l-2.858,0.002c-0.867,0.001-2.143-0.429-2.834-0.952c0,0-10.671-8.098-17.755,3.539C-2.286,26.97,0.568,39.639,0.568,39.639 c0.5,3.102,2.148,5.172,5.258,4.912c3.101-0.259,9.832-8.354,9.832-8.354c0.556-0.667,1.721-1.212,2.586-1.212l17.134-0.003 c0.866,0,2.03,0.545,2.585,1.212c0,0,6.732,8.095,9.838,8.354c3.106,0.26,4.758-1.812,5.255-4.912 C53.055,39.636,55.914,26.969,48.831,15.334z M20.374,24.806H16.7v3.541c0,0-0.778,0.594-1.982,0.579 c-1.202-0.018-1.746-0.648-1.746-0.648v-3.471h-3.47c0,0-0.433-0.444-0.549-1.613c-0.114-1.169,0.479-2.114,0.479-2.114h3.675 v-3.674c0,0,0.756-0.405,1.843-0.374c1.088,0.034,1.885,0.443,1.885,0.443l-0.015,3.604h3.47c0,0,0.606,0.778,0.656,1.718 C20.996,23.738,20.374,24.806,20.374,24.806z M37.226,28.842c-1.609,0-2.906-1.301-2.906-2.908c0-1.61,1.297-2.908,2.906-2.908 c1.602,0,2.909,1.298,2.909,2.908C40.135,27.542,38.828,28.842,37.226,28.842z M37.226,20.841c-1.609,0-2.906-1.3-2.906-2.907 c0-1.61,1.297-2.908,2.906-2.908c1.602,0,2.909,1.298,2.909,2.908C40.135,19.542,38.828,20.841,37.226,20.841z M44.468,25.136 c-1.609,0-2.906-1.3-2.906-2.908c0-1.609,1.297-2.908,2.906-2.908c1.602,0,2.909,1.299,2.909,2.908 C47.377,23.836,46.07,25.136,44.468,25.136z"/>
</svg>

</defs>
</svg>
