<svg width="49" height="44" viewBox="0 0 49 44" fill="none" xmlns="http://www.w3.org/2000/svg">
<path d="M40.2878 14.2469C39.7663 14.0666 39.2404 13.8994 38.7106 13.7458C38.7996 13.3791 38.8815 13.0169 38.9542 12.661C40.1482 6.81732 39.3677 2.10951 36.7016 0.559474C34.1453 -0.926491 29.9648 0.622965 25.7428 4.32765C25.3267 4.69342 24.9198 5.06972 24.5226 5.45621C24.2567 5.19921 23.986 4.94719 23.7108 4.7003C19.2859 0.739141 14.8506 -0.930351 12.1874 0.624123C9.63348 2.11472 8.87723 6.54039 9.95217 12.0786C10.0591 12.6271 10.1799 13.1728 10.3143 13.7151C9.6865 13.8949 9.0807 14.0864 8.50093 14.2902C3.31305 16.1139 0 18.9717 0 21.9361C0 24.9978 3.55671 28.0687 8.96011 29.9308C9.39817 30.0812 9.83988 30.2205 10.2848 30.3486C10.1403 30.9327 10.012 31.5208 9.90011 32.1121C8.87532 37.5542 9.67559 41.8753 12.2226 43.3564C14.8533 44.886 19.2687 43.314 23.5679 39.5248C23.9165 39.2167 24.2574 38.8999 24.5903 38.5747C25.0205 38.9932 25.4622 39.3995 25.9149 39.7932C30.0795 43.4062 34.1924 44.8652 36.737 43.38C39.3652 41.8459 40.2194 37.2039 39.1104 31.5563C39.0231 31.1139 38.9251 30.6736 38.8166 30.2359C39.1267 30.1433 39.431 30.048 39.7277 29.9488C45.3451 28.0724 49 25.0387 49 21.9361C49 18.9609 45.58 16.0838 40.2878 14.2469ZM39.0695 27.9456C38.8015 28.035 38.5266 28.1212 38.2464 28.2052C37.6263 26.2258 36.7894 24.1211 35.7652 21.9464C36.7425 19.8236 37.5472 17.7457 38.1499 15.7792C38.6512 15.9255 39.1376 16.0797 39.6065 16.2424C44.141 17.8164 46.9068 20.1431 46.9068 21.9361C46.9068 23.8459 43.9197 26.3251 39.0695 27.9456ZM37.057 31.9662C37.5474 34.4634 37.6173 36.7213 37.2924 38.4865C37.0007 40.0726 36.4139 41.13 35.6881 41.5536C34.144 42.4548 30.8417 41.2834 27.2802 38.1934C26.8591 37.8274 26.4483 37.4496 26.0481 37.0606C27.4289 35.5381 28.8087 33.7683 30.1555 31.8026C32.5243 31.5907 34.7622 31.2441 36.7917 30.7711C36.8916 31.1777 36.9805 31.5764 37.057 31.9662ZM16.7052 41.3978C15.1965 41.9349 13.9949 41.9504 13.2685 41.5281C11.7229 40.6294 11.0803 37.1598 11.9568 32.5058C12.061 31.9558 12.1802 31.4089 12.3145 30.8656C14.3216 31.3134 16.5432 31.6352 18.9176 31.8294C20.2736 33.7528 21.6932 35.5208 23.124 37.0689C22.8199 37.3655 22.5087 37.6545 22.1905 37.9357C20.2893 39.6112 18.3842 40.8 16.7052 41.3978ZM9.6373 27.9338C7.24798 27.1104 5.27477 26.0403 3.9223 24.8726C2.70687 23.8233 2.09341 22.7814 2.09341 21.9361C2.09341 20.1372 4.75338 17.8426 9.18999 16.2831C9.72841 16.094 10.2919 15.9155 10.8767 15.748C11.4899 17.7588 12.2942 19.8614 13.2648 21.9875C12.2816 24.145 11.4658 26.2811 10.8466 28.3158C10.4405 28.1985 10.0372 28.0711 9.6373 27.9338ZM12.0065 11.6731C11.0857 6.92828 11.6972 3.34904 13.2363 2.4507C14.8755 1.49389 18.5004 2.85809 22.321 6.27851C22.5702 6.50206 22.8153 6.73013 23.0562 6.96263C21.6325 8.50398 20.2259 10.2588 18.882 12.1708C16.5775 12.3862 14.3715 12.732 12.3434 13.1954C12.2184 12.691 12.1061 12.1835 12.0065 11.6733V11.6731ZM33.1429 16.9354C32.6639 16.1011 32.1671 15.2773 31.6529 14.4646C33.2163 14.664 34.7142 14.9286 36.1208 15.252C35.6986 16.6168 35.1722 18.0435 34.5527 19.5063C34.0998 18.64 33.6298 17.7828 33.1429 16.9354ZM24.5235 8.47098C25.489 9.52563 26.456 10.703 27.4071 11.9806C25.4777 11.8887 23.5451 11.8883 21.6157 11.9794C22.5678 10.7136 23.543 9.53779 24.5235 8.47098ZM15.8488 16.9499C15.3681 17.7905 14.9068 18.6423 14.4655 19.5046C13.8561 18.047 13.3345 16.6137 12.9086 15.2296C14.3067 14.9143 15.7975 14.6565 17.351 14.4608C16.831 15.2784 16.3301 16.1083 15.8488 16.9497V16.9499ZM17.3956 29.5617C15.7906 29.381 14.2774 29.1365 12.8797 28.8297C13.3123 27.4209 13.8454 25.9571 14.468 24.4683C14.9111 25.3312 15.3742 26.1835 15.8571 27.0245C16.3536 27.8891 16.8677 28.7359 17.3956 29.5617ZM24.5813 35.5499C23.5891 34.4707 22.5995 33.2768 21.6331 31.9927C22.5714 32.0297 23.5278 32.0486 24.5 32.0486C25.4988 32.0486 26.486 32.026 27.4578 31.9824C26.5036 33.2897 25.5403 34.4854 24.5813 35.5499ZM34.5724 24.3922C35.2274 25.8975 35.7794 27.3535 36.2177 28.7382C34.7971 29.0651 33.2632 29.3283 31.6469 29.5238C32.1648 28.696 32.6663 27.8579 33.1512 27.01C33.6441 26.1482 34.118 25.2754 34.5724 24.3922ZM31.338 25.9556C30.5958 27.2556 29.8118 28.5309 28.9873 29.7795C27.4939 29.8862 25.9972 29.9391 24.5 29.9384C22.9751 29.9384 21.4919 29.8905 20.0636 29.7971C19.2176 28.5514 18.4187 27.2738 17.6685 25.9672H17.6687C16.9221 24.6674 16.2247 23.3396 15.578 21.9865C16.223 20.6331 16.9183 19.3046 17.6624 18.0039L17.6622 18.0041C18.406 16.7031 19.1986 15.431 20.0381 14.1906C21.4953 14.0794 22.9896 14.0215 24.4998 14.0215H24.5C26.0171 14.0215 27.5133 14.08 28.9701 14.1919C29.8012 15.4305 30.5887 16.6982 31.3311 17.9927C32.0777 19.2906 32.7822 20.6126 33.4435 21.9566C32.7889 23.3144 32.0867 24.6482 31.338 25.9556ZM35.6561 2.38779C37.2968 3.34189 37.935 7.18938 36.9041 12.2349C36.8382 12.5568 36.7644 12.8847 36.684 13.2172C34.6508 12.744 32.4434 12.3922 30.1321 12.1735C28.7858 10.2404 27.3906 8.48295 25.9901 6.96147C26.3571 6.60475 26.7329 6.25727 27.1171 5.91937C30.7347 2.74539 34.1157 1.49216 35.6561 2.38779ZM24.5 17.5246C26.9165 17.5246 28.8755 19.4997 28.8755 21.9361C28.8755 24.3725 26.9165 26.3477 24.5 26.3477C22.0835 26.3477 20.1245 24.3725 20.1245 21.9361C20.1245 19.4997 22.0835 17.5246 24.5 17.5246Z" fill="#00D8FF"/>
</svg>
