<svg width="28" height="32" viewBox="0 0 28 32" fill="none" xmlns="http://www.w3.org/2000/svg">
<g clip-path="url(#clip0)">
<path d="M8.60453 19.5522C8.09594 19.8697 7.32966 20.3843 6.73684 20.9439C5.76363 21.8617 5.55997 23.1347 6.07337 23.4321C6.54828 23.707 7.65702 23.3799 8.45053 22.5155C9.28331 21.6082 9.62675 20.4579 9.27205 19.1522C9.23038 19.1769 9.18947 19.2019 9.14933 19.225L9.1502 19.2269L9.09639 19.2572C8.88934 19.3806 8.72014 19.4825 8.60453 19.5521V19.5522ZM22.8967 19.1401C22.6086 19.7654 22.5941 19.9665 22.6816 20.0292C23.0997 19.8792 23.7913 19.5178 23.7967 18.5493C23.7976 18.4043 23.7655 18.2487 23.7141 18.086C23.2672 18.4811 23.0097 18.8948 22.8967 19.1401ZM27.3821 17.2501C26.2654 17.1201 25.394 17.2765 24.7178 17.5578C24.843 17.8833 24.9392 18.2222 24.9528 18.5637C24.9842 19.3132 24.4675 19.868 23.9291 20.2641C23.6146 20.495 23.28 20.6488 22.9992 20.7418C22.7746 20.8363 22.4761 20.934 22.2643 20.8909C21.7972 20.7961 21.5486 20.3819 21.8664 19.468C22.038 18.9735 22.533 18.2208 23.3321 17.5723C23.15 17.1979 22.947 16.8165 22.8435 16.4659C22.6396 15.775 22.5781 15.3574 22.5781 15.3574C22.5781 15.3574 21.9194 16.721 21.0697 17.9611C21.0207 18.0331 20.9718 18.1037 20.9228 18.1741C21.0897 18.5615 21.2212 18.9711 21.239 19.3839C21.2703 20.1335 20.9453 20.7002 20.4061 21.0953C20.1142 21.3102 19.8028 21.4587 19.5356 21.5531C19.3647 21.6275 19.0173 21.7502 18.5231 21.7831C18.2528 21.8016 17.9928 21.7849 17.8477 21.675C17.6479 21.5243 17.6238 21.3382 17.7273 21.0842C17.8148 20.8684 18.4694 20.1222 19.0182 19.4689C19.1644 19.294 19.3062 19.1154 19.4434 18.9334L19.4402 18.9262C19.4402 18.9262 19.5396 18.7981 19.701 18.5744C19.5004 18.143 19.2461 17.6941 19.1265 17.287C18.9226 16.596 18.861 16.1783 18.861 16.1783C18.861 16.1783 18.1933 17.8874 17.4978 19.2517C16.9596 20.3083 16.6001 20.9486 16.4381 21.2293L16.4364 21.2406C16.4364 21.2406 16.4123 21.2815 16.3706 21.3456L16.3394 21.3976L16.3385 21.3928C16.158 21.6591 15.7528 22.1807 15.3501 22.1807C14.2446 22.1807 14.6505 19.9386 14.6505 19.9386C14.6505 19.9386 14.3273 20.7692 13.9629 21.4818C13.6662 22.0628 13.3958 22.5552 12.8045 22.5552C12.6345 22.5552 12.3648 22.5504 12.141 22.3379C11.6331 21.8561 11.2448 20.6328 11.321 19.6853C11.3859 18.8798 11.5103 18.3217 11.6804 17.8562C11.3405 18.0409 11.0035 18.2309 10.6695 18.4262L10.1207 18.7492L10.1384 18.7813C10.5924 19.6583 10.7136 21.5797 9.72355 23.0545C8.73359 24.5302 6.89073 25.4281 5.09523 24.9295C4.51587 24.7684 3.64066 23.5717 4.39556 21.9035C5.06144 20.4324 7.72264 19.0417 8.42395 18.6947L8.61645 18.5887C7.2182 17.3671 3.72652 15.7191 3.23717 13.1876C3.09914 12.475 3.43372 10.7707 5.52923 8.81168C7.29181 7.16428 9.74367 5.90252 12.0086 5.09848C15.8138 3.74793 19.8342 4.54454 20.4527 6.96715C21.0608 9.34956 18.991 12.1993 16.3402 13.2237C13.9734 14.1383 12.0166 13.9933 11.2127 13.7296C10.2989 13.4298 9.76292 12.8277 9.63222 12.4879C9.58081 12.3547 9.49244 12.1312 9.63222 12.0543C9.71797 12.0069 9.75242 12.0182 9.98189 12.2715C10.2002 12.512 11.0778 13.1572 12.745 12.9705C17.12 12.4808 19.7554 9.08417 18.9226 7.25646C18.3395 5.97722 14.9674 5.40002 10.7545 7.49782C5.61181 10.058 5.33269 12.1687 5.28861 12.9704C5.16819 15.1756 8.01227 16.3356 9.55117 17.9756L9.61045 18.0406C9.89844 17.8819 10.2026 17.7143 10.501 17.5508C11.1168 17.2131 11.733 16.876 12.3495 16.5397C12.8912 15.7537 13.9902 14.8862 14.7837 14.8862C16.0521 14.8862 15.6165 16.7066 15.6165 16.7066C15.6165 16.7066 15.6422 16.6234 15.6766 16.6225C15.7127 16.6216 15.8524 16.3827 16.2439 16.5253C16.6467 16.673 16.5551 16.9552 16.5576 16.984C16.5624 17.0399 16.0818 18.6584 15.8821 19.6966C15.7865 20.192 15.8419 20.5528 15.8701 20.5528C15.9094 20.5528 15.9896 20.4268 16.0642 20.2915L16.0626 20.2874C16.0626 20.2874 16.1187 20.1848 16.2127 20.0005L16.2311 19.962L16.2319 19.9637C16.3874 19.6573 16.5361 19.3476 16.6779 19.0346C17.0301 18.2595 18.3739 15.2669 18.4879 14.936C18.6017 14.605 18.6611 14.2626 18.7173 14.1158C18.7727 13.9691 19.2477 13.8585 19.8028 13.8625C20.358 13.8666 20.4143 14.1031 20.4181 14.152C20.4222 14.2008 20.1542 14.8575 20.0924 15.3216C20.0315 15.7857 20.0901 16.0173 20.1406 16.4069C20.1736 16.6617 20.3331 16.9849 20.5218 17.3511C21.0963 16.4132 22.107 14.6193 22.2041 14.1167C22.2706 13.7729 22.3774 13.4434 22.4336 13.2965C22.4897 13.1498 22.9639 13.0393 23.519 13.0432C24.0742 13.0474 24.1303 13.2838 24.1344 13.3326C24.1384 13.3816 23.8696 14.0382 23.8086 14.5023C23.7476 14.9656 23.8063 15.198 23.8568 15.5877C23.9002 15.921 24.1584 16.3691 24.4145 16.8788C25.1132 16.535 25.9355 16.3043 26.8984 16.2995C27.297 16.2971 27.76 16.337 27.9991 16.4115V8.74276C27.9991 8.20171 27.7214 7.70304 27.2522 7.43295L14.7236 0.202152C14.4941 0.069412 14.2335 -0.000488281 13.9683 -0.000488281C13.703 -0.000488281 13.4425 0.069412 13.2129 0.202152L0.718922 7.42945C0.250359 7.69965 0 8.19898 0 8.73916V23.2069C0 23.7471 0.251891 24.2465 0.719687 24.5166L13.2338 31.7493C13.4622 31.8825 13.7219 31.9526 13.9863 31.9526C14.2508 31.9526 14.5105 31.8825 14.7388 31.7493L27.2587 24.5165C27.7271 24.2456 28 23.7468 28 23.2068V17.3598C27.8411 17.3131 27.6084 17.2763 27.3821 17.25V17.2501ZM13.9036 16.4923C13.6349 16.7929 13.1768 17.5681 12.9626 18.2168C12.5366 19.5048 12.7211 20.814 13.0227 20.8926C13.3749 20.9847 13.9526 19.2629 14.2292 18.5895C14.4026 18.1677 15.0766 16.2961 14.9289 16.0461C14.8136 15.8505 14.3361 16.0084 13.9036 16.4924V16.4923ZM18.7777 20.8339C18.7777 20.8339 18.6927 20.9142 18.7295 20.9365C18.7792 20.9662 18.8868 20.9278 19.0039 20.8667C19.3353 20.6586 20.079 20.139 20.0806 19.3703C20.0806 19.3478 20.0797 19.3261 20.0782 19.3029C19.9245 19.5041 19.7683 19.7035 19.6096 19.9008C19.3753 20.1919 18.7777 20.8339 18.7777 20.8339Z" fill="#CD6799"/>
</g>
<defs>
<clipPath id="clip0">
<rect width="28" height="32" fill="white"/>
</clipPath>
</defs>
</svg>
