<svg viewBox="0 -56 512 512" fill="#37322E" xmlns="http://www.w3.org/2000/svg"><path d="m481.5 0h-451c-16.816406 0-30.5 13.683594-30.5 30.5v339c0 16.816406 13.683594 30.5 30.5 30.5h451c16.816406 0 30.5-13.683594 30.5-30.5v-339c0-16.816406-13.683594-30.5-30.5-30.5zm10.5 369.5c0 5.789062-4.710938 10.5-10.5 10.5h-451c-5.789062 0-10.5-4.710938-10.5-10.5v-339c0-5.789062 4.710938-10.5 10.5-10.5h451c5.789062 0 10.5 4.710938 10.5 10.5zm0 0"/><path d="m461.367188 99.332031h-410.734376c-5.523437 0-10 4.476563-10 10v240c0 5.523438 4.476563 10 10 10h119.035157c5.523437 0 10-4.476562 10-10 0-5.523437-4.476563-10-10-10h-109.035157v-220h390.734376v220h-201.367188c-5.523438 0-10 4.476563-10 10 0 5.523438 4.476562 10 10 10h211.367188c5.523437 0 10-4.476562 10-10v-240c0-5.519531-4.476563-10-10-10zm0 0"/><path d="m191 69.332031h258c5.523438 0 10-4.476562 10-10 0-5.523437-4.476562-10-10-10h-258c-5.523438 0-10 4.476563-10 10 0 5.523438 4.476562 10 10 10zm0 0"/><path d="m60.328125 69.328125c.652344 0 1.3125-.058594 1.960937-.1875.640626-.128906 1.261719-.320313 1.871094-.570313.601563-.25 1.179688-.558593 1.71875-.921874.550782-.367188 1.0625-.789063 1.519532-1.25 1.871093-1.859376 2.929687-4.429688 2.929687-7.070313 0-.648437-.058594-1.308594-.1875-1.949219s-.320313-1.269531-.570313-1.867187c-.25-.601563-.558593-1.191407-.921874-1.730469-.367188-.542969-.777344-1.0625-1.25-1.519531-.457032-.460938-.96875-.882813-1.519532-1.242188-.539062-.359375-1.117187-.667969-1.71875-.917969-.609375-.25-1.230468-.441406-1.871094-.570312-1.289062-.261719-2.617187-.261719-3.910156 0-.640625.128906-1.269531.320312-1.867187.570312-.601563.25-1.191407.558594-1.730469.917969-.550781.359375-1.0625.78125-1.519531 1.242188-.460938.457031-.882813.976562-1.242188 1.519531-.359375.539062-.667969 1.128906-.917969 1.730469-.25.597656-.441406 1.226562-.570312 1.867187-.132812.640625-.203125 1.300782-.203125 1.949219 0 2.640625 1.070313 5.210937 2.933594 7.070313 1.859375 1.871093 4.4375 2.929687 7.066406 2.929687zm0 0"/><path d="m91.101562 63.160156c.25.601563.558594 1.179688.917969 1.71875.359375.550782.78125 1.0625 1.242188 1.519532 1.859375 1.871093 4.4375 2.929687 7.066406 2.929687.660156 0 1.3125-.058594 1.960937-.1875.640626-.128906 1.261719-.320313 1.871094-.570313.601563-.25 1.179688-.558593 1.71875-.921874.550782-.367188 1.0625-.777344 1.519532-1.25.472656-.457032.882812-.96875 1.25-1.519532.363281-.539062.671874-1.117187.921874-1.71875.25-.609375.441407-1.230468.570313-1.871094.128906-.648437.1875-1.300781.1875-1.960937 0-.648437-.058594-1.296875-.1875-1.949219-.128906-.640625-.320313-1.269531-.570313-1.867187-.25-.601563-.558593-1.183594-.921874-1.730469-.367188-.542969-.777344-1.0625-1.25-1.519531-.457032-.460938-.96875-.882813-1.519532-1.242188-.539062-.359375-1.117187-.667969-1.71875-.917969-.609375-.25-1.230468-.441406-1.871094-.570312-3.25-.660156-6.710937.410156-9.027343 2.730469-.460938.457031-.882813.976562-1.242188 1.519531-.359375.546875-.667969 1.128906-.917969 1.730469-.25.597656-.441406 1.226562-.570312 1.867187-.132812.652344-.203125 1.300782-.203125 1.949219 0 .660156.070313 1.3125.203125 1.960937.128906.640626.320312 1.261719.570312 1.871094zm0 0"/><path d="m131.101562 63.160156c.25.601563.558594 1.179688.917969 1.71875.359375.550782.78125 1.0625 1.242188 1.519532.457031.472656.96875.882812 1.519531 1.25.539062.363281 1.128906.671874 1.730469.921874.597656.25 1.226562.441407 1.867187.570313s1.300782.1875 1.949219.1875c.660156 0 1.3125-.058594 1.960937-.1875.640626-.128906 1.261719-.320313 1.871094-.570313.601563-.25 1.179688-.558593 1.71875-.921874.550782-.367188 1.0625-.777344 1.519532-1.25.460937-.457032.882812-.96875 1.25-1.519532.363281-.539062.671874-1.117187.921874-1.71875.25-.609375.441407-1.230468.570313-1.871094.128906-.648437.1875-1.300781.1875-1.960937 0-.648437-.058594-1.308594-.1875-1.949219s-.320313-1.269531-.570313-1.867187c-.25-.601563-.558593-1.191407-.921874-1.730469-.367188-.550781-.789063-1.0625-1.25-1.519531-.457032-.460938-.96875-.882813-1.519532-1.242188-.539062-.359375-1.117187-.667969-1.71875-.917969-.609375-.25-1.230468-.441406-1.871094-.570312-1.289062-.261719-2.617187-.261719-3.910156 0-.640625.128906-1.269531.320312-1.867187.570312-.601563.25-1.191407.558594-1.730469.917969-.550781.359375-1.0625.78125-1.519531 1.242188-.460938.457031-.882813.96875-1.242188 1.519531-.359375.539062-.667969 1.128906-.917969 1.730469-.25.597656-.441406 1.226562-.570312 1.867187-.132812.640625-.203125 1.300782-.203125 1.949219 0 .660156.070313 1.3125.203125 1.960937.128906.640626.320312 1.261719.570312 1.871094zm0 0"/><path d="m176.597656 173.496094c-3.59375-4.195313-9.90625-4.683594-14.101562-1.09375l-59.332032 50.804687c-2.242187 1.917969-3.519531 4.726563-3.496093 7.675781.023437 2.953126 1.347656 5.738282 3.621093 7.621094l60 49.699219c1.863282 1.542969 4.125 2.296875 6.371094 2.296875 2.875 0 5.730469-1.234375 7.707032-3.621094 3.523437-4.253906 2.933593-10.558594-1.320313-14.078125l-50.855469-42.125 50.316406-43.078125c4.191407-3.59375 4.679688-9.90625 1.089844-14.101562zm0 0"/><path d="m322.722656 286.484375c1.976563 2.324219 4.789063 3.515625 7.617188 3.515625 2.292968 0 4.597656-.785156 6.480468-2.386719l59.332032-50.550781c2.25-1.917969 3.539062-4.734375 3.511718-7.691406-.023437-2.960938-1.355468-5.753906-3.636718-7.636719l-60-49.449219c-4.261719-3.515625-10.566406-2.90625-14.078125 1.355469s-2.90625 10.5625 1.355469 14.078125l50.792968 41.859375-50.25 42.8125c-4.203125 3.578125-4.707031 9.890625-1.125 14.09375zm0 0"/><path d="m284.757812 171.058594c-4.753906-2.8125-10.886718-1.238282-13.699218 3.515625l-59.332032 100.335937c-2.8125 4.753906-1.238281 10.886719 3.515626 13.699219 1.597656.945313 3.351562 1.394531 5.082031 1.394531 3.417969 0 6.75-1.757812 8.617187-4.914062l59.332032-100.332032c2.8125-4.753906 1.238281-10.886718-3.515626-13.699218zm0 0"/><path d="m219.230469 346.179688c-.25-.609376-.558594-1.191407-.921875-1.730469-.359375-.550781-.777344-1.058594-1.238282-1.519531-.460937-.460938-.96875-.878907-1.519531-1.238282-.539062-.363281-1.121093-.671875-1.730469-.921875-.601562-.25-1.230468-.449219-1.871093-.570312-3.238281-.660157-6.699219.410156-9.019531 2.730469-.460938.460937-.878907.96875-1.238282 1.519531-.363281.539062-.671875 1.121093-.921875 1.730469-.25.601562-.449219 1.230468-.570312 1.871093-.128907.640625-.199219 1.300781-.199219 1.949219 0 2.628906 1.070312 5.210938 2.929688 7.070312 1.859374 1.859376 4.441406 2.929688 7.070312 2.929688.648438 0 1.308594-.058594 1.949219-.191406.640625-.128906 1.269531-.328125 1.871093-.578125.609376-.25 1.191407-.558594 1.730469-.921875.550781-.359375 1.058594-.777344 1.519531-1.238282.460938-.460937.878907-.96875 1.238282-1.519531.363281-.539062.671875-1.121093.921875-1.730469.25-.601562.449219-1.230468.570312-1.871093.128907-.640625.199219-1.300781.199219-1.949219s-.070312-1.308594-.199219-1.949219c-.121093-.640625-.320312-1.269531-.570312-1.871093zm0 0"/></svg>