<svg height="512pt" viewBox="0 -20 512 512" width="512pt" xmlns="http://www.w3.org/2000/svg"><path d="m484.230469 0h-456.460938c-15.3125 0-27.769531 12.457031-27.769531 27.769531v293.871094c0 15.3125 12.457031 27.769531 27.769531 27.769531h36.832031c4.179688 0 7.574219-3.390625 7.574219-7.570312 0-4.183594-3.394531-7.574219-7.574219-7.574219h-36.832031c-6.960937 0-12.621093-5.664063-12.621093-12.625v-293.871094c0-6.960937 5.664062-12.621093 12.621093-12.621093h456.460938c6.960937 0 12.621093 5.664062 12.621093 12.621093v154.269531c-1.164062-.226562-2.363281-.355468-3.59375-.355468h-13.574218v-141.792969c0-4.183594-3.390625-7.574219-7.574219-7.574219h-69.238281c-4.183594 0-7.574219 3.390625-7.574219 7.574219s3.390625 7.574219 7.574219 7.574219h61.664062v134.21875h-96.378906c-10.335938 0-18.746094 8.410156-18.746094 18.746094v101.519531h-301.945312v-254.484375h320.0625c4.183594 0 7.574218-3.390625 7.574218-7.574219s-3.390624-7.574219-7.574218-7.574219h-327.636719c-4.183594 0-7.574219 3.390625-7.574219 7.574219v269.632813c0 4.183593 3.390625 7.574218 7.574219 7.574218h309.523437v17.167969h-249.25c-4.179687 0-7.570312 3.390625-7.570312 7.574219s3.390625 7.574218 7.570312 7.574218h86.679688l-8.230469 66.648438h-13.5c-9.746093 0-17.675781 7.929688-17.675781 17.675781v20.195313c0 9.746094 7.929688 17.671875 17.675781 17.671875h181.773438c3.914062 0 7.523437-1.292969 10.457031-3.457031 3.058594 2.167968 6.785156 3.457031 10.8125 3.457031h125.101562c10.332032 0 18.742188-8.40625 18.742188-18.742188v-140.6875c0-4.183593-3.390625-7.574219-7.574219-7.574219-4.183593 0-7.574219 3.390626-7.574219 7.574219v109.65625h-132.292968v-190.375h132.292968v45.265625c0 4.183594 3.390626 7.574219 7.574219 7.574219 4.183594 0 7.574219-3.390625 7.574219-7.574219v-248.953125c0-15.3125-12.457031-27.769531-27.769531-27.769531zm-134.820313 416.265625c-.824218-.121094-1.664062-.203125-2.523437-.203125h-13.5l-8.230469-66.652344h24.253906zm-147.304687-66.855469h107.789062l8.230469 66.652344h-124.25zm147.304687 104.523438c0 1.390625-1.128906 2.523437-2.523437 2.523437h-181.773438c-1.394531 0-2.527343-1.132812-2.527343-2.523437v-20.199219c0-1.390625 1.132812-2.523437 2.527343-2.523437h161.597657 20.175781c1.394531 0 2.527343 1.132812 2.527343 2.523437v20.199219zm147.441406-1.070313c0 1.980469-1.613281 3.59375-3.59375 3.59375h-125.101562c-1.980469 0-3.597656-1.613281-3.597656-3.59375v-15.882812h132.292968zm-132.292968-236.554687v-15.882813c0-1.980469 1.613281-3.59375 3.597656-3.59375h125.101562c1.980469 0 3.59375 1.613281 3.59375 3.59375v15.882813zm0 0"/><path d="m80.285156 198.941406h161.578125c4.183594 0 7.574219-3.390625 7.574219-7.574218v-121.179688c0-4.183594-3.390625-7.574219-7.574219-7.574219h-161.578125c-4.183594 0-7.574218 3.390625-7.574218 7.574219v121.179688c0 4.1875 3.390624 7.574218 7.574218 7.574218zm7.574219-121.179687h146.429687v106.035156h-146.429687zm0 0"/><path d="m330.226562 235.804688c0-4.183594-3.390624-7.574219-7.574218-7.574219h-242.367188c-4.183594 0-7.574218 3.390625-7.574218 7.574219 0 4.179687 3.390624 7.574218 7.574218 7.574218h242.367188c4.183594 0 7.574218-3.394531 7.574218-7.574218zm0 0"/><path d="m80.285156 266.605469c-4.183594 0-7.574218 3.390625-7.574218 7.574219 0 4.179687 3.390624 7.574218 7.574218 7.574218h131.28125c4.183594 0 7.574219-3.394531 7.574219-7.574218 0-4.183594-3.390625-7.574219-7.574219-7.574219zm0 0"/><path d="m431.714844 76.75h-159.558594c-4.179688 0-7.570312 3.390625-7.570312 7.574219 0 4.183593 3.390624 7.574219 7.570312 7.574219h159.558594c4.183594 0 7.574218-3.390626 7.574218-7.574219 0-4.183594-3.390624-7.574219-7.574218-7.574219zm0 0"/><path d="m437.269531 137.847656c0-4.183594-3.390625-7.574218-7.574219-7.574218h-157.539062c-4.179688 0-7.570312 3.390624-7.570312 7.574218 0 4.179688 3.390624 7.574219 7.570312 7.574219h157.539062c4.183594 0 7.574219-3.390625 7.574219-7.574219zm0 0"/><path d="m320.632812 198.941406c4.179688 0 7.570313-3.390625 7.570313-7.574218 0-4.179688-3.390625-7.570313-7.570313-7.570313h-48.476562c-4.179688 0-7.570312 3.390625-7.570312 7.570313 0 4.183593 3.390624 7.574218 7.570312 7.574218zm0 0"/><path d="m482.714844 252.972656c0-4.183594-3.390625-7.574218-7.574219-7.574218h-88.867187c-4.183594 0-7.574219 3.390624-7.574219 7.574218v66.648438c0 4.183594 3.390625 7.574218 7.574219 7.574218h88.867187c4.183594 0 7.574219-3.390624 7.574219-7.574218zm-15.148438 59.074219h-73.71875v-51.5h73.71875zm0 0"/><path d="m475.140625 339.3125h-88.867187c-4.183594 0-7.574219 3.390625-7.574219 7.574219 0 4.183593 3.390625 7.574219 7.574219 7.574219h88.867187c4.183594 0 7.574219-3.390626 7.574219-7.574219 0-4.183594-3.390625-7.574219-7.574219-7.574219zm0 0"/><path d="m482.714844 376.175781c0-4.183593-3.390625-7.574219-7.574219-7.574219h-88.867187c-4.183594 0-7.574219 3.390626-7.574219 7.574219 0 4.179688 3.390625 7.570313 7.574219 7.570313h88.867187c4.183594 0 7.574219-3.390625 7.574219-7.570313zm0 0"/><path d="m386.273438 397.886719c-4.183594 0-7.574219 3.390625-7.574219 7.574219 0 4.183593 3.390625 7.574218 7.574219 7.574218h47.460937c4.183594 0 7.574219-3.390625 7.574219-7.574218 0-4.183594-3.390625-7.574219-7.574219-7.574219zm0 0"/></svg>