<svg width="11" height="13" viewBox="0 0 11 13" fill="none" xmlns="http://www.w3.org/2000/svg">
<path d="M10.9815 3.81206C10.9814 3.59404 10.937 3.40139 10.8472 3.23609C10.7591 3.07346 10.627 2.93718 10.4499 2.82944C8.9879 1.94386 7.52447 1.06098 6.06293 0.174502C5.66891 -0.0644632 5.28687 -0.0557062 4.89577 0.18669C4.31385 0.547169 1.40035 2.30068 0.532168 2.82894C0.174625 3.04642 0.000644531 3.37918 0.000558594 3.81166C0 5.59261 0.000558594 7.37357 0 9.15452C0 9.36776 0.042582 9.55671 0.128391 9.71953C0.216605 9.88704 0.350496 10.0271 0.531695 10.1372C1.39992 10.6655 4.3138 12.4189 4.8956 12.7795C5.28687 13.022 5.66891 13.0307 6.06306 12.7917C7.52464 11.9052 8.98816 11.0223 10.4504 10.1367C10.6316 10.0266 10.7655 9.88645 10.8537 9.71908C10.9394 9.55621 10.982 9.36731 10.982 9.15403C10.982 9.15403 10.982 5.59306 10.9815 3.81206Z" fill="#A179DC"/>
<path d="M5.50834 6.46582L0.128906 9.71961C0.217121 9.88712 0.351012 10.0271 0.532211 10.1373C1.40044 10.6656 4.31432 12.419 4.89612 12.7796C5.28739 13.0221 5.66943 13.0308 6.06358 12.7918C7.52516 11.9052 8.98868 11.0224 10.4509 10.1368C10.6321 10.0266 10.766 9.88654 10.8542 9.71916L5.50834 6.46582Z" fill="#280068"/>
<path d="M10.9815 3.81206C10.9814 3.59404 10.937 3.40138 10.8472 3.23608L5.50781 6.46577L10.8537 9.71907C10.9394 9.5562 10.9819 9.3673 10.982 9.15402C10.982 9.15402 10.982 5.59306 10.9815 3.81206Z" fill="#390091"/>
<path d="M8.67504 5.24951V5.85771H9.254V5.24951H9.54348V5.85771H10.1224V6.16181H9.54348V6.76997H10.1224V7.07407H9.54348V7.68227H9.254V7.07407H8.67504V7.68227H8.38556V7.07407H7.80664V6.76997H8.38556V6.16181H7.80664V5.85771H8.38556V5.24951H8.67504ZM9.254 6.16177H8.67504V6.76997H9.254V6.16181V6.16177Z" fill="white"/>
<path d="M5.51957 2.19487C7.02967 2.19487 8.34808 3.05639 9.05427 4.33698L9.04739 4.32466L7.27064 5.39932C6.92061 4.77672 6.27892 4.35653 5.54273 4.34786L5.51953 4.34772C4.39697 4.34772 3.48689 5.30377 3.48689 6.48302C3.48653 6.85471 3.57896 7.22 3.75498 7.54243C4.10534 8.18498 4.76401 8.61836 5.51957 8.61836C6.27982 8.61836 6.94223 8.17947 7.29079 7.53006L7.28232 7.54563L9.05638 8.62527C8.35792 9.89502 7.05755 10.7539 5.56503 10.771L5.51957 10.7713C4.00471 10.7713 2.68256 9.90441 1.97813 8.61705C1.63425 7.98858 1.4375 7.25999 1.4375 6.48302C1.4375 4.11476 3.26505 2.19482 5.51953 2.19482L5.51957 2.19487Z" fill="white"/>
</svg>
