<svg width="34" height="34" viewBox="0 0 34 34" fill="none" xmlns="http://www.w3.org/2000/svg">
<path d="M6.27025 28.9011L3.88281 2.125H30.1159L27.7253 28.8968L16.9834 31.875L6.27025 28.9011Z" fill="#E44F26"/>
<path d="M17 29.5993L25.6806 27.1927L27.7228 4.31494H17V29.5993Z" fill="#F1662A"/>
<path d="M17 14.2449H12.6544L12.3548 10.8821H17V7.5979H8.76562L8.84425 8.47978L9.65069 17.5291H17V14.2449Z" fill="#EBEBEB"/>
<path d="M16.9996 22.7735L16.9847 22.7778L13.3276 21.7907L13.0938 19.1716H9.79688L10.2569 24.3269L16.9847 26.1948L16.9996 26.1905V22.7735Z" fill="#EBEBEB"/>
<path d="M16.9873 14.2451V17.5293H21.0312L20.6508 21.7889L16.9873 22.777V26.194L23.7204 24.3272L23.7692 23.7726L24.5406 15.127L24.6214 14.2451H16.9873Z" fill="white"/>
<path d="M16.9873 7.5979V10.8821H24.9199L24.9858 10.1447L25.1356 8.47978L25.2142 7.5979H16.9873Z" fill="white"/>
</svg>
