<svg width="10" height="13" viewBox="0 0 10 13" fill="none" xmlns="http://www.w3.org/2000/svg">
<path d="M3.22471 10.0496C3.22471 10.0496 2.70917 10.3379 3.59163 10.4355C4.66073 10.5528 5.2071 10.536 6.38526 10.3215C6.38526 10.3215 6.69503 10.5083 7.12756 10.6701C4.48651 11.7589 1.15026 10.6071 3.22471 10.0496Z" fill="#5382A1"/>
<path d="M2.9019 8.62891C2.9019 8.62891 2.32366 9.04062 3.20679 9.12847C4.34882 9.24179 5.25069 9.25107 6.81132 8.96202C6.81132 8.96202 7.02718 9.1725 7.36659 9.28762C4.17335 10.1858 0.616668 9.35845 2.9019 8.62891Z" fill="#5382A1"/>
<path d="M5.62326 6.21868C6.27404 6.93932 5.45228 7.58781 5.45228 7.58781C5.45228 7.58781 7.10467 6.76735 6.3458 5.7399C5.63705 4.7818 5.0935 4.30569 8.03596 2.66431C8.03596 2.66431 3.41728 3.77382 5.62326 6.21864" fill="#E76F00"/>
<path d="M9.1161 11.1005C9.1161 11.1005 9.49763 11.4028 8.69591 11.6367C7.17145 12.081 2.35091 12.2151 1.01177 11.6544C0.530399 11.4531 1.43313 11.1735 1.71708 11.1148C2.01321 11.0531 2.18247 11.0646 2.18247 11.0646C1.64712 10.7018 -1.2778 11.7769 0.696766 12.0847C6.08165 12.9246 10.5129 11.7065 9.1161 11.1005Z" fill="#5382A1"/>
<path d="M3.47252 7.15665C3.47252 7.15665 1.02052 7.71686 2.60424 7.92023C3.27291 8.00635 4.60592 7.98689 5.8476 7.8868C6.86236 7.80451 7.88131 7.62943 7.88131 7.62943C7.88131 7.62943 7.52349 7.77682 7.26463 7.94684C4.77463 8.57674 -0.0356094 8.28371 1.3492 7.63938C2.52033 7.09488 3.47256 7.15665 3.47256 7.15665" fill="#5382A1"/>
<path d="M7.87117 9.52173C10.4024 8.2566 9.23207 7.04084 8.4152 7.20465C8.21496 7.24471 8.1257 7.27942 8.1257 7.27942C8.1257 7.27942 8.20004 7.16746 8.34199 7.11899C9.95801 6.5725 11.2009 8.73073 7.82031 9.58549C7.82031 9.58553 7.85949 9.55187 7.87117 9.52173Z" fill="#5382A1"/>
<path d="M6.34523 0.0139536C6.34523 0.0139536 7.74707 1.3628 5.01566 3.43682C2.82539 5.1006 4.51621 6.04922 5.01476 7.13307C3.73625 6.02356 2.79797 5.04683 3.42746 4.13781C4.35132 2.80336 6.91082 2.1564 6.34523 0.013916" fill="#E76F00"/>
<path d="M3.72086 12.9498C6.15051 13.0994 9.88148 12.8668 9.96984 11.761C9.96984 11.761 9.8 12.1802 7.96187 12.5131C5.88812 12.8885 3.33047 12.8446 1.81348 12.6041C1.81352 12.6041 2.12402 12.8513 3.7209 12.9498" fill="#5382A1"/>
</svg>
