<svg width="12" height="12" viewBox="0 0 12 12" fill="none" xmlns="http://www.w3.org/2000/svg">
<path d="M5.94923 0.00341797C2.91023 0.00341797 3.09998 1.32648 3.09998 1.32648L3.10335 2.69721H6.00342V3.10874H1.95149C1.95149 3.10874 0.00683594 2.88732 0.00683594 5.96568C0.00683594 9.04412 1.70418 8.93495 1.70418 8.93495H2.71715V7.50643C2.71715 7.50643 2.66254 5.80243 4.3874 5.80243H7.26374C7.26374 5.80243 8.87976 5.82864 8.87976 4.23448V1.59862C8.87976 1.59862 9.1252 0.00341797 5.94923 0.00341797ZM4.35013 0.925206C4.41866 0.925144 4.48653 0.93865 4.54986 0.964949C4.61318 0.991249 4.67072 1.02983 4.71918 1.07848C4.76764 1.12712 4.80607 1.18489 4.83226 1.24846C4.85846 1.31204 4.87191 1.38017 4.87185 1.44897C4.87191 1.51777 4.85846 1.58591 4.83226 1.64948C4.80607 1.71305 4.76764 1.77082 4.71918 1.81947C4.67072 1.86811 4.61318 1.90669 4.54986 1.93299C4.48653 1.95929 4.41866 1.9728 4.35013 1.97274C4.2816 1.9728 4.21373 1.95929 4.15041 1.93299C4.08708 1.90669 4.02954 1.86811 3.98109 1.81947C3.93263 1.77082 3.8942 1.71305 3.868 1.64948C3.84181 1.58591 3.82835 1.51777 3.82841 1.44897C3.82835 1.38017 3.84181 1.31204 3.868 1.24846C3.8942 1.18489 3.93263 1.12712 3.98109 1.07848C4.02954 1.02983 4.08708 0.991249 4.15041 0.964949C4.21373 0.93865 4.2816 0.925144 4.35013 0.925206Z" fill="url(#paint0_linear)"/>
<path d="M6.03556 11.9589C9.07456 11.9589 8.88481 10.6358 8.88481 10.6358L8.88143 9.26512H5.98133V8.85359H10.0332C10.0332 8.85359 11.9779 9.075 11.9779 5.99656C11.9779 2.91816 10.2806 3.02733 10.2806 3.02733H9.26759V4.4558C9.26759 4.4558 9.3222 6.1598 7.59734 6.1598H4.721C4.721 6.1598 3.10498 6.13359 3.10498 7.7278V10.3637C3.10498 10.3637 2.85959 11.9589 6.03551 11.9589H6.03556ZM7.63465 11.0372C7.56612 11.0372 7.49825 11.0237 7.43493 10.9974C7.3716 10.9711 7.31406 10.9325 7.26561 10.8839C7.21715 10.8353 7.17872 10.7775 7.15252 10.7139C7.12633 10.6503 7.11287 10.5822 7.11294 10.5134C7.11287 10.4446 7.12632 10.3765 7.15251 10.3129C7.1787 10.2493 7.21713 10.1915 7.26559 10.1429C7.31405 10.0942 7.37159 10.0556 7.43492 10.0293C7.49825 10.003 7.56612 9.98953 7.63465 9.98959C7.70318 9.98953 7.77105 10.003 7.83438 10.0293C7.89771 10.0556 7.95524 10.0942 8.0037 10.1429C8.05216 10.1915 8.09059 10.2493 8.11679 10.3128C8.14298 10.3764 8.15643 10.4446 8.15637 10.5134C8.15643 10.5822 8.14298 10.6503 8.11679 10.7139C8.09059 10.7774 8.05216 10.8352 8.0037 10.8839C7.95524 10.9325 7.89771 10.9711 7.83438 10.9974C7.77105 11.0237 7.70318 11.0372 7.63465 11.0371V11.0372Z" fill="url(#paint1_linear)"/>
<defs>
<linearGradient id="paint0_linear" x1="1.15725" y1="1.07874" x2="7.11271" y2="6.95176" gradientUnits="userSpaceOnUse">
<stop stop-color="#387EB8"/>
<stop offset="1" stop-color="#366994"/>
</linearGradient>
<linearGradient id="paint1_linear" x1="4.79864" y1="4.86497" x2="11.193" y2="10.8861" gradientUnits="userSpaceOnUse">
<stop stop-color="#FFE052"/>
<stop offset="1" stop-color="#FFC331"/>
</linearGradient>
</defs>
</svg>
